<?xml version="1.0" encoding="UTF-8" standalone="no"?>
<svg width="700" height="700" viewBox="0 0 700 700" fill="none" version="1.1" id="svg175" sodipodi:docname="logo.svg"
  inkscape:version="1.1.2 (0a00cf5339, 2022-02-04, custom)" xmlns:inkscape="http://www.inkscape.org/namespaces/inkscape"
  xmlns:sodipodi="http://sodipodi.sourceforge.net/DTD/sodipodi-0.dtd" xmlns="http://www.w3.org/2000/svg"
  xmlns:svg="http://www.w3.org/2000/svg">
  <sodipodi:namedview id="namedview177" pagecolor="#ffffff" bordercolor="#666666" borderopacity="1.0"
    inkscape:pageshadow="2" inkscape:pageopacity="0.0" inkscape:pagecheckerboard="0" showgrid="false" height="700px"
    inkscape:zoom="0.37833227" inkscape:cx="1651.987" inkscape:cy="511.45518" inkscape:window-width="1889"
    inkscape:window-height="697" inkscape:window-x="5787" inkscape:window-y="1699" inkscape:window-maximized="0"
    inkscape:current-layer="svg175" />
  <g filter="url(#filter0_d)" id="g117">
    <mask id="path-1-inside-1" fill="#ffffff">
      <path fill-rule="evenodd" clip-rule="evenodd"
        d="M 349.5,613 C 495.027,613 613,495.027 613,349.5 613,203.973 495.027,86 349.5,86 203.973,86 86,203.973 86,349.5 86,495.027 203.973,613 349.5,613 Z m 0,-111 C 433.723,502 502,433.723 502,349.5 502,265.277 433.723,197 349.5,197 265.277,197 197,265.277 197,349.5 197,433.723 265.277,502 349.5,502 Z"
        id="path110" />
    </mask>
    <path fill-rule="evenodd" clip-rule="evenodd"
      d="M 349.5,613 C 495.027,613 613,495.027 613,349.5 613,203.973 495.027,86 349.5,86 203.973,86 86,203.973 86,349.5 86,495.027 203.973,613 349.5,613 Z m 0,-111 C 433.723,502 502,433.723 502,349.5 502,265.277 433.723,197 349.5,197 265.277,197 197,265.277 197,349.5 197,433.723 265.277,502 349.5,502 Z"
      fill="#323330" id="path113" />
    <path
      d="M 612,349.5 C 612,494.475 494.475,612 349.5,612 v 2 C 495.579,614 614,495.579 614,349.5 Z M 349.5,87 C 494.475,87 612,204.525 612,349.5 h 2 C 614,203.421 495.579,85 349.5,85 Z M 87,349.5 C 87,204.525 204.525,87 349.5,87 V 85 C 203.421,85 85,203.421 85,349.5 Z M 349.5,612 C 204.525,612 87,494.475 87,349.5 H 85 C 85,495.579 203.421,614 349.5,614 Z M 501,349.5 C 501,433.171 433.171,501 349.5,501 v 2 C 434.276,503 503,434.276 503,349.5 Z M 349.5,198 c 83.671,0 151.5,67.829 151.5,151.5 h 2 C 503,264.724 434.276,196 349.5,196 Z M 198,349.5 C 198,265.829 265.829,198 349.5,198 v -2 C 264.724,196 196,264.724 196,349.5 Z M 349.5,501 C 265.829,501 198,433.171 198,349.5 h -2 c 0,84.776 68.724,153.5 153.5,153.5 z"
      fill="#ffffff" mask="url(#path-1-inside-1)" id="path115" />
  </g>
  <path fill-rule="evenodd" clip-rule="evenodd"
    d="m 267.052,486.597 -48.005,83.148 C 98.656,498.333 57.8211,343.15 128,221.596 198.179,100.043 352.989,57.8151 475.029,126.371 l -48.006,83.148 C 350.906,167.466 254.807,193.96 211.138,269.596 167.47,345.233 192.575,441.704 267.052,486.597 Z m 210.65,-358.703 -0.269,-0.156 z"
    fill="url(#paint0_linear)" id="path119" />
  <path fill-rule="evenodd" clip-rule="evenodd"
    d="m 477.702,127.894 0.41,0.237 c -0.137,-0.079 -0.273,-0.158 -0.41,-0.237 z m -45.412,84.664 48.005,-83.147 c 120.44,71.394 161.301,226.611 91.11,348.185 -70.191,121.575 -225.044,163.796 -347.093,95.19 l 48.005,-83.148 c 76.128,42.103 172.268,15.616 215.95,-60.042 43.681,-75.657 18.549,-172.161 -55.977,-217.038 z"
    fill="url(#paint1_linear)" id="path121" />
  <defs id="defs173">
    <filter id="filter0_d" x="84" y="84" width="531" height="531" filterUnits="userSpaceOnUse"
      color-interpolation-filters="sRGB">
      <feFlood flood-opacity="0" result="BackgroundImageFix" id="feFlood129" />
      <feColorMatrix in="SourceAlpha" type="matrix" values="0 0 0 0 0 0 0 0 0 0 0 0 0 0 0 0 0 0 127 0"
        id="feColorMatrix131" />
      <feOffset id="feOffset133" />
      <feGaussianBlur stdDeviation="1" id="feGaussianBlur135" />
      <feColorMatrix type="matrix" values="0 0 0 0 1 0 0 0 0 1 0 0 0 0 1 0 0 0 0.5 0" id="feColorMatrix137" />
      <feBlend mode="normal" in2="BackgroundImageFix" result="effect1_dropShadow" id="feBlend139" />
      <feBlend mode="normal" in="SourceGraphic" in2="effect1_dropShadow" result="shape" id="feBlend141" />
    </filter>
    <filter id="filter1_d" x="611" y="415.63101" width="1491.02" height="237.26801" filterUnits="userSpaceOnUse"
      color-interpolation-filters="sRGB">
      <feFlood flood-opacity="0" result="BackgroundImageFix" id="feFlood144" />
      <feColorMatrix in="SourceAlpha" type="matrix" values="0 0 0 0 0 0 0 0 0 0 0 0 0 0 0 0 0 0 127 0"
        id="feColorMatrix146" />
      <feOffset id="feOffset148" />
      <feGaussianBlur stdDeviation="1" id="feGaussianBlur150" />
      <feColorMatrix type="matrix" values="0 0 0 0 1 0 0 0 0 1 0 0 0 0 1 0 0 0 0.5 0" id="feColorMatrix152" />
      <feBlend mode="normal" in2="BackgroundImageFix" result="effect1_dropShadow" id="feBlend154" />
      <feBlend mode="normal" in="SourceGraphic" in2="effect1_dropShadow" result="shape" id="feBlend156" />
    </filter>
    <linearGradient id="paint0_linear" x1="477.711" y1="127.879" x2="221.77299" y2="571.177"
      gradientUnits="userSpaceOnUse">
      <stop stop-color="#FFDE00" id="stop159" />
      <stop offset="0.494792" stop-color="#D6C44B" id="stop161" />
      <stop offset="1" stop-color="#323330" id="stop163" />
    </linearGradient>
    <linearGradient id="paint1_linear" x1="221.702" y1="571.29901" x2="477.64099" y2="128"
      gradientUnits="userSpaceOnUse">
      <stop stop-color="#FFDE00" id="stop166" />
      <stop offset="0.494792" stop-color="#D6C44B" id="stop168" />
      <stop offset="1" stop-color="#323330" id="stop170" />
    </linearGradient>
  </defs>
</svg>