<svg width="2157" height="701" viewBox="0 0 2157 701" fill="none" xmlns="http://www.w3.org/2000/svg">
<g filter="url(#filter0_d)">
<path fill-rule="evenodd" clip-rule="evenodd" d="M349.5 614C495.027 614 613 496.027 613 350.5C613 204.973 495.027 87 349.5 87C203.973 87 86 204.973 86 350.5C86 496.027 203.973 614 349.5 614ZM349.5 503C433.723 503 502 434.723 502 350.5C502 266.277 433.723 198 349.5 198C265.277 198 197 266.277 197 350.5C197 434.723 265.277 503 349.5 503Z" fill="#323330"/>
</g>
<path fill-rule="evenodd" clip-rule="evenodd" d="M267.052 487.597L219.047 570.745C98.656 499.333 57.8211 344.15 128 222.596C198.179 101.043 352.989 58.8151 475.029 127.371L427.023 210.519C350.906 168.466 254.807 194.96 211.138 270.596C167.47 346.233 192.575 442.704 267.052 487.597ZM477.702 128.894L477.433 128.738L477.702 128.894L477.702 128.894Z" fill="url(#paint0_linear)"/>
<path fill-rule="evenodd" clip-rule="evenodd" d="M477.702 128.894L478.112 129.131C477.975 129.052 477.839 128.973 477.702 128.894L477.702 128.894ZM432.29 213.558L480.295 130.411C600.735 201.805 641.596 357.022 571.405 478.596C501.214 600.171 346.361 642.392 224.312 573.786L272.317 490.638C348.445 532.741 444.585 506.254 488.267 430.596C531.948 354.939 506.816 258.435 432.29 213.558Z" fill="url(#paint1_linear)"/>
<g filter="url(#filter1_d)">
<path d="M633.75 569.75C638.417 573.917 643.333 577.083 648.5 579.25C653.833 581.417 658.833 582.5 663.5 582.5C676.5 582.5 685.75 577.917 691.25 568.75C696.75 559.583 699.5 548.5 699.5 535.5C699.5 522 696.833 510.75 691.5 501.75C686.167 492.583 676.833 488 663.5 488C658.833 488 653.833 489.167 648.5 491.5C643.333 493.667 638.417 496.833 633.75 501V569.75ZM614 650.75V474.75H625.75L630.25 485.5C635.417 481.5 641.25 478.167 647.75 475.5C654.417 472.667 660.667 471.25 666.5 471.25C684.333 471.25 697.583 477.333 706.25 489.5C714.917 501.667 719.25 516.917 719.25 535.25C719.25 553.75 714.833 569 706 581C697.333 593 684.167 599 666.5 599C661.167 599 655.583 598 649.75 596C643.917 593.833 638.583 590.917 633.75 587.25V648L614 650.75ZM852.689 538.5H764.689C765.189 551.333 768.606 562 774.939 570.5C781.273 578.833 791.273 583 804.939 583C813.106 583 819.689 582.167 824.689 580.5C829.856 578.667 834.773 576.667 839.439 574.5L845.689 589C840.523 592.5 833.773 595 825.439 596.5C817.106 598.167 810.439 599 805.439 599C785.273 599 770.023 593.083 759.689 581.25C749.356 569.25 744.189 553.833 744.189 535C744.356 516.667 749.273 501.5 758.939 489.5C768.773 477.5 782.689 471.5 800.689 471.5C819.523 471.5 832.856 478.167 840.689 491.5C848.689 504.667 852.689 520.333 852.689 538.5ZM833.189 525C831.856 514.167 828.606 505.333 823.439 498.5C818.273 491.667 810.439 488.25 799.939 488.25C789.439 488.25 781.273 491.667 775.439 498.5C769.773 505.333 766.356 514.167 765.189 525H833.189ZM901.77 492.25C906.936 486.417 913.603 481.5 921.77 477.5C929.936 473.333 937.603 471.25 944.77 471.25C958.603 471.25 968.853 475.333 975.52 483.5C982.186 491.5 985.52 501.583 985.52 513.75V595.75H965.77V516.5C965.77 508.333 963.77 501.583 959.77 496.25C955.77 490.917 949.603 488.167 941.27 488C936.103 488 929.77 489.75 922.27 493.25C914.936 496.75 908.603 501.583 903.27 507.75V596H883.52V474.75H895.52L901.77 492.25ZM1132.17 446.75C1126.5 444.583 1121.17 442.833 1116.17 441.5C1111.17 440.167 1104.42 439.5 1095.92 439.5C1079.25 439.667 1066 446.417 1056.17 459.75C1046.5 473.083 1041.67 490.417 1041.67 511.75C1041.67 531.083 1045.75 547.75 1053.92 561.75C1062.25 575.583 1075.5 582.5 1093.67 582.5C1102.17 582.5 1109.33 581.75 1115.17 580.25C1121.17 578.75 1126.5 576.917 1131.17 574.75L1138.67 589.75C1133.5 592.417 1126.58 594.667 1117.92 596.5C1109.42 598.5 1101.67 599.5 1094.67 599.5C1068.5 599.5 1049.67 590.833 1038.17 573.5C1026.67 556 1020.92 535.5 1020.92 512C1020.92 486.833 1027.25 465.667 1039.92 448.5C1052.75 431.167 1071.42 422.5 1095.92 422.5C1101.08 422.5 1108.08 423.25 1116.92 424.75C1125.92 426.25 1133.08 428.75 1138.42 432.25L1132.17 446.75ZM1184.08 561.5C1184.08 566.667 1185.83 571.583 1189.33 576.25C1193 580.917 1198.83 583.25 1206.83 583.25C1213.83 583.25 1220.25 581.5 1226.08 578C1231.92 574.5 1236.92 570.333 1241.08 565.5V537.75H1209.08C1200.92 537.75 1194.67 540.167 1190.33 545C1186.17 549.667 1184.08 555.167 1184.08 561.5ZM1173.58 482.25C1178.25 479.083 1184.83 476.5 1193.33 474.5C1201.83 472.5 1208.58 471.5 1213.58 471.5C1227.58 471.5 1238.92 475.333 1247.58 483C1256.42 490.5 1260.83 500.333 1260.83 512.5V596H1248.83L1243.58 583.75C1239.42 587.583 1234 591.083 1227.33 594.25C1220.67 597.417 1214 599 1207.33 599C1193.33 599 1182.92 595.5 1176.08 588.5C1169.25 581.333 1165.83 572.333 1165.83 561.5C1165.83 549.5 1169.83 540.417 1177.83 534.25C1186 527.917 1196.58 524.75 1209.58 524.75H1240.83C1240.83 514.75 1239.25 506.25 1236.08 499.25C1232.92 492.25 1225.67 488.75 1214.33 488.75C1206.17 488.75 1199.42 489.667 1194.08 491.5C1188.75 493.333 1183.83 495.25 1179.33 497.25C1178.5 494.75 1177.58 492.25 1176.58 489.75C1175.58 487.25 1174.58 484.75 1173.58 482.25ZM1367.56 496.75C1363.56 494.75 1358.98 492.833 1353.81 491C1348.64 489.167 1342.48 488.25 1335.31 488.25C1327.98 488.25 1322.06 489.75 1317.56 492.75C1313.23 495.75 1311.06 499.833 1311.06 505C1311.06 509.667 1313.56 513.667 1318.56 517C1323.73 520.167 1330.31 523.083 1338.31 525.75C1348.14 529.25 1357.31 534 1365.81 540C1374.48 546 1378.81 554 1378.81 564C1378.81 575 1374.64 583.667 1366.31 590C1358.14 596.167 1346.14 599.25 1330.31 599.25C1325.14 599.25 1318.64 598.333 1310.81 596.5C1302.98 594.833 1296.56 592.333 1291.56 589L1297.56 574C1302.23 576.333 1307.39 578.333 1313.06 580C1318.89 581.667 1324.73 582.5 1330.56 582.5C1339.56 582.5 1346.56 581.083 1351.56 578.25C1356.56 575.417 1359.06 571.083 1359.06 565.25C1359.06 560.083 1356.31 555.583 1350.81 551.75C1345.31 547.75 1338.48 544.417 1330.31 541.75C1320.81 538.583 1311.81 534.25 1303.31 528.75C1294.98 523.083 1290.81 515.5 1290.81 506C1290.81 495.167 1294.81 486.75 1302.81 480.75C1310.98 474.583 1321.98 471.5 1335.81 471.5C1340.98 471.5 1347.39 472.5 1355.06 474.5C1362.73 476.333 1368.89 478.917 1373.56 482.25L1367.56 496.75ZM1459.38 488.25C1447.05 488.25 1437.96 492.75 1432.13 501.75C1426.3 510.583 1423.3 521.583 1423.13 534.75C1423.13 548.417 1425.88 559.833 1431.38 569C1436.88 578 1445.88 582.5 1458.38 582.5C1466.55 582.5 1472.71 581.667 1476.88 580C1481.05 578.333 1485.46 576.333 1490.13 574L1496.13 588.5C1490.96 591.833 1484.71 594.417 1477.38 596.25C1470.05 598.25 1463.8 599.25 1458.63 599.25C1440.3 599.25 1426.38 593.25 1416.88 581.25C1407.55 569.25 1402.88 553.833 1402.88 535C1403.05 516.5 1407.96 501.333 1417.63 489.5C1427.46 477.5 1441.55 471.5 1459.88 471.5C1464.71 471.5 1470.8 472.5 1478.13 474.5C1485.63 476.333 1491.96 479 1497.13 482.5L1491.13 496.75C1486.46 494.583 1481.96 492.667 1477.63 491C1473.46 489.167 1467.38 488.25 1459.38 488.25ZM1538.82 561.5C1538.82 566.667 1540.57 571.583 1544.07 576.25C1547.74 580.917 1553.57 583.25 1561.57 583.25C1568.57 583.25 1574.99 581.5 1580.82 578C1586.65 574.5 1591.65 570.333 1595.82 565.5V537.75H1563.82C1555.65 537.75 1549.4 540.167 1545.07 545C1540.9 549.667 1538.82 555.167 1538.82 561.5ZM1528.32 482.25C1532.99 479.083 1539.57 476.5 1548.07 474.5C1556.57 472.5 1563.32 471.5 1568.32 471.5C1582.32 471.5 1593.65 475.333 1602.32 483C1611.15 490.5 1615.57 500.333 1615.57 512.5V596H1603.57L1598.32 583.75C1594.15 587.583 1588.74 591.083 1582.07 594.25C1575.4 597.417 1568.74 599 1562.07 599C1548.07 599 1537.65 595.5 1530.82 588.5C1523.99 581.333 1520.57 572.333 1520.57 561.5C1520.57 549.5 1524.57 540.417 1532.57 534.25C1540.74 527.917 1551.32 524.75 1564.32 524.75H1595.57C1595.57 514.75 1593.99 506.25 1590.82 499.25C1587.65 492.25 1580.4 488.75 1569.07 488.75C1560.9 488.75 1554.15 489.667 1548.82 491.5C1543.49 493.333 1538.57 495.25 1534.07 497.25C1533.24 494.75 1532.32 492.25 1531.32 489.75C1530.32 487.25 1529.32 484.75 1528.32 482.25ZM1702.29 488C1689.13 488 1679.79 492.667 1674.29 502C1668.96 511.167 1666.29 522.25 1666.29 535.25C1666.29 548.75 1668.96 560 1674.29 569C1679.63 577.833 1688.96 582.25 1702.29 582.25C1706.96 582.25 1711.96 581.167 1717.29 579C1722.63 576.667 1727.63 573.417 1732.29 569.25V501.25C1727.63 497.083 1722.63 493.833 1717.29 491.5C1711.96 489.167 1706.96 488 1702.29 488ZM1752.29 419.75V596H1740.54L1735.29 585C1730.13 589.167 1724.21 592.583 1717.54 595.25C1711.04 597.917 1704.79 599.25 1698.79 599.25C1681.13 599.25 1667.88 593.25 1659.04 581.25C1650.38 569.083 1646.04 553.833 1646.04 535.5C1646.04 516.833 1650.46 501.5 1659.29 489.5C1668.29 477.333 1681.63 471.25 1699.29 471.25C1704.46 471.25 1710.04 472.417 1716.04 474.75C1722.04 476.917 1727.46 479.833 1732.29 483.5V422L1752.29 419.75ZM1892.97 538.5H1804.97C1805.47 551.333 1808.89 562 1815.22 570.5C1821.56 578.833 1831.56 583 1845.22 583C1853.39 583 1859.97 582.167 1864.97 580.5C1870.14 578.667 1875.06 576.667 1879.72 574.5L1885.97 589C1880.81 592.5 1874.06 595 1865.72 596.5C1857.39 598.167 1850.72 599 1845.72 599C1825.56 599 1810.31 593.083 1799.97 581.25C1789.64 569.25 1784.47 553.833 1784.47 535C1784.64 516.667 1789.56 501.5 1799.22 489.5C1809.06 477.5 1822.97 471.5 1840.97 471.5C1859.81 471.5 1873.14 478.167 1880.97 491.5C1888.97 504.667 1892.97 520.333 1892.97 538.5ZM1873.47 525C1872.14 514.167 1868.89 505.333 1863.72 498.5C1858.56 491.667 1850.72 488.25 1840.22 488.25C1829.72 488.25 1821.56 491.667 1815.72 498.5C1810.06 505.333 1806.64 514.167 1805.47 525H1873.47ZM1921.55 569.25C1925.22 569.25 1928.3 570.583 1930.8 573.25C1933.47 575.75 1934.8 578.833 1934.8 582.5C1934.8 586.333 1933.47 589.583 1930.8 592.25C1928.3 594.75 1925.22 596 1921.55 596C1917.72 596 1914.47 594.75 1911.8 592.25C1909.14 589.583 1907.8 586.333 1907.8 582.5C1907.8 578.833 1909.14 575.75 1911.8 573.25C1914.47 570.583 1917.72 569.25 1921.55 569.25ZM1969.23 450.75C1965.4 450.75 1962.15 449.5 1959.48 447C1956.98 444.333 1955.73 441.083 1955.73 437.25C1955.73 433.583 1956.98 430.5 1959.48 428C1962.15 425.333 1965.4 424 1969.23 424C1972.9 424 1976.07 425.333 1978.73 428C1981.4 430.5 1982.73 433.583 1982.73 437.25C1982.73 441.083 1981.4 444.333 1978.73 447C1976.07 449.5 1972.9 450.75 1969.23 450.75ZM1959.23 603.5V474.75H1979.23V593.75C1979.23 609.75 1977.23 621.667 1973.23 629.5C1969.23 637.5 1959.23 644 1943.23 649L1935.73 634.75C1944.07 631.583 1950.07 627.833 1953.73 623.5C1957.4 619.333 1959.23 612.667 1959.23 603.5ZM2087.77 496.75C2083.77 494.75 2079.19 492.833 2074.02 491C2068.86 489.167 2062.69 488.25 2055.52 488.25C2048.19 488.25 2042.27 489.75 2037.77 492.75C2033.44 495.75 2031.27 499.833 2031.27 505C2031.27 509.667 2033.77 513.667 2038.77 517C2043.94 520.167 2050.52 523.083 2058.52 525.75C2068.36 529.25 2077.52 534 2086.02 540C2094.69 546 2099.02 554 2099.02 564C2099.02 575 2094.86 583.667 2086.52 590C2078.36 596.167 2066.36 599.25 2050.52 599.25C2045.36 599.25 2038.86 598.333 2031.02 596.5C2023.19 594.833 2016.77 592.333 2011.77 589L2017.77 574C2022.44 576.333 2027.61 578.333 2033.27 580C2039.11 581.667 2044.94 582.5 2050.77 582.5C2059.77 582.5 2066.77 581.083 2071.77 578.25C2076.77 575.417 2079.27 571.083 2079.27 565.25C2079.27 560.083 2076.52 555.583 2071.02 551.75C2065.52 547.75 2058.69 544.417 2050.52 541.75C2041.02 538.583 2032.02 534.25 2023.52 528.75C2015.19 523.083 2011.02 515.5 2011.02 506C2011.02 495.167 2015.02 486.75 2023.02 480.75C2031.19 474.583 2042.19 471.5 2056.02 471.5C2061.19 471.5 2067.61 472.5 2075.27 474.5C2082.94 476.333 2089.11 478.917 2093.77 482.25L2087.77 496.75Z" fill="#323330"/>
</g>
<defs>
<filter id="filter0_d" x="82" y="83" width="535" height="535" filterUnits="userSpaceOnUse" color-interpolation-filters="sRGB">
<feFlood flood-opacity="0" result="BackgroundImageFix"/>
<feColorMatrix in="SourceAlpha" type="matrix" values="0 0 0 0 0 0 0 0 0 0 0 0 0 0 0 0 0 0 127 0"/>
<feOffset/>
<feGaussianBlur stdDeviation="2"/>
<feColorMatrix type="matrix" values="0 0 0 0 1 0 0 0 0 1 0 0 0 0 1 0 0 0 1 0"/>
<feBlend mode="normal" in2="BackgroundImageFix" result="effect1_dropShadow"/>
<feBlend mode="normal" in="SourceGraphic" in2="effect1_dropShadow" result="shape"/>
</filter>
<filter id="filter1_d" x="610" y="416.75" width="1493.02" height="239" filterUnits="userSpaceOnUse" color-interpolation-filters="sRGB">
<feFlood flood-opacity="0" result="BackgroundImageFix"/>
<feColorMatrix in="SourceAlpha" type="matrix" values="0 0 0 0 0 0 0 0 0 0 0 0 0 0 0 0 0 0 127 0"/>
<feOffset dy="1"/>
<feGaussianBlur stdDeviation="2"/>
<feColorMatrix type="matrix" values="0 0 0 0 1 0 0 0 0 1 0 0 0 0 1 0 0 0 1 0"/>
<feBlend mode="normal" in2="BackgroundImageFix" result="effect1_dropShadow"/>
<feBlend mode="normal" in="SourceGraphic" in2="effect1_dropShadow" result="shape"/>
</filter>
<linearGradient id="paint0_linear" x1="477.711" y1="128.879" x2="221.773" y2="572.177" gradientUnits="userSpaceOnUse">
<stop stop-color="#FFDE00"/>
<stop offset="0.494792" stop-color="#D6C44B"/>
<stop offset="1" stop-color="#323330"/>
</linearGradient>
<linearGradient id="paint1_linear" x1="221.702" y1="572.299" x2="477.641" y2="129" gradientUnits="userSpaceOnUse">
<stop stop-color="#FFDE00"/>
<stop offset="0.494792" stop-color="#D6C44B"/>
<stop offset="1" stop-color="#323330"/>
</linearGradient>
</defs>
</svg>
