<svg width="2157" height="699" viewBox="0 0 2157 699" fill="none" xmlns="http://www.w3.org/2000/svg">
<g filter="url(#filter0_d)">
<mask id="path-1-inside-1" fill="white">
<path fill-rule="evenodd" clip-rule="evenodd" d="M349.5 613C495.027 613 613 495.027 613 349.5C613 203.973 495.027 86 349.5 86C203.973 86 86 203.973 86 349.5C86 495.027 203.973 613 349.5 613ZM349.5 502C433.723 502 502 433.723 502 349.5C502 265.277 433.723 197 349.5 197C265.277 197 197 265.277 197 349.5C197 433.723 265.277 502 349.5 502Z"/>
</mask>
<path fill-rule="evenodd" clip-rule="evenodd" d="M349.5 613C495.027 613 613 495.027 613 349.5C613 203.973 495.027 86 349.5 86C203.973 86 86 203.973 86 349.5C86 495.027 203.973 613 349.5 613ZM349.5 502C433.723 502 502 433.723 502 349.5C502 265.277 433.723 197 349.5 197C265.277 197 197 265.277 197 349.5C197 433.723 265.277 502 349.5 502Z" fill="#323330"/>
<path d="M612 349.5C612 494.475 494.475 612 349.5 612V614C495.579 614 614 495.579 614 349.5H612ZM349.5 87C494.475 87 612 204.525 612 349.5H614C614 203.421 495.579 85 349.5 85V87ZM87 349.5C87 204.525 204.525 87 349.5 87V85C203.421 85 85 203.421 85 349.5H87ZM349.5 612C204.525 612 87 494.475 87 349.5H85C85 495.579 203.421 614 349.5 614V612ZM501 349.5C501 433.171 433.171 501 349.5 501V503C434.276 503 503 434.276 503 349.5H501ZM349.5 198C433.171 198 501 265.829 501 349.5H503C503 264.724 434.276 196 349.5 196V198ZM198 349.5C198 265.829 265.829 198 349.5 198V196C264.724 196 196 264.724 196 349.5H198ZM349.5 501C265.829 501 198 433.171 198 349.5H196C196 434.276 264.724 503 349.5 503V501Z" fill="white" mask="url(#path-1-inside-1)"/>
</g>
<path fill-rule="evenodd" clip-rule="evenodd" d="M267.052 486.597L219.047 569.745C98.656 498.333 57.8211 343.15 128 221.596C198.179 100.043 352.989 57.8151 475.029 126.371L427.023 209.519C350.906 167.466 254.807 193.96 211.138 269.596C167.47 345.233 192.575 441.704 267.052 486.597ZM477.702 127.894L477.433 127.738L477.702 127.894L477.702 127.894Z" fill="url(#paint0_linear)"/>
<path fill-rule="evenodd" clip-rule="evenodd" d="M477.702 127.894L478.112 128.131C477.975 128.052 477.839 127.973 477.702 127.894L477.702 127.894ZM432.29 212.558L480.295 129.411C600.735 200.805 641.596 356.022 571.405 477.596C501.214 599.171 346.361 641.392 224.312 572.786L272.317 489.638C348.445 531.741 444.585 505.254 488.267 429.596C531.948 353.939 506.816 257.435 432.29 212.558Z" fill="url(#paint1_linear)"/>
<g filter="url(#filter1_d)">
<path d="M633.75 568.75C638.417 572.917 643.333 576.083 648.5 578.25C653.833 580.417 658.833 581.5 663.5 581.5C676.5 581.5 685.75 576.917 691.25 567.75C696.75 558.583 699.5 547.5 699.5 534.5C699.5 521 696.833 509.75 691.5 500.75C686.167 491.583 676.833 487 663.5 487C658.833 487 653.833 488.167 648.5 490.5C643.333 492.667 638.417 495.833 633.75 500V568.75ZM614 649.75V473.75H625.75L630.25 484.5C635.417 480.5 641.25 477.167 647.75 474.5C654.417 471.667 660.667 470.25 666.5 470.25C684.333 470.25 697.583 476.333 706.25 488.5C714.917 500.667 719.25 515.917 719.25 534.25C719.25 552.75 714.833 568 706 580C697.333 592 684.167 598 666.5 598C661.167 598 655.583 597 649.75 595C643.917 592.833 638.583 589.917 633.75 586.25V647L614 649.75ZM852.689 537.5H764.689C765.189 550.333 768.606 561 774.939 569.5C781.273 577.833 791.273 582 804.939 582C813.106 582 819.689 581.167 824.689 579.5C829.856 577.667 834.773 575.667 839.439 573.5L845.689 588C840.523 591.5 833.773 594 825.439 595.5C817.106 597.167 810.439 598 805.439 598C785.273 598 770.023 592.083 759.689 580.25C749.356 568.25 744.189 552.833 744.189 534C744.356 515.667 749.273 500.5 758.939 488.5C768.773 476.5 782.689 470.5 800.689 470.5C819.523 470.5 832.856 477.167 840.689 490.5C848.689 503.667 852.689 519.333 852.689 537.5ZM833.189 524C831.856 513.167 828.606 504.333 823.439 497.5C818.273 490.667 810.439 487.25 799.939 487.25C789.439 487.25 781.273 490.667 775.439 497.5C769.773 504.333 766.356 513.167 765.189 524H833.189ZM901.77 491.25C906.936 485.417 913.603 480.5 921.77 476.5C929.936 472.333 937.603 470.25 944.77 470.25C958.603 470.25 968.853 474.333 975.52 482.5C982.186 490.5 985.52 500.583 985.52 512.75V594.75H965.77V515.5C965.77 507.333 963.77 500.583 959.77 495.25C955.77 489.917 949.603 487.167 941.27 487C936.103 487 929.77 488.75 922.27 492.25C914.936 495.75 908.603 500.583 903.27 506.75V595H883.52V473.75H895.52L901.77 491.25ZM1132.17 445.75C1126.5 443.583 1121.17 441.833 1116.17 440.5C1111.17 439.167 1104.42 438.5 1095.92 438.5C1079.25 438.667 1066 445.417 1056.17 458.75C1046.5 472.083 1041.67 489.417 1041.67 510.75C1041.67 530.083 1045.75 546.75 1053.92 560.75C1062.25 574.583 1075.5 581.5 1093.67 581.5C1102.17 581.5 1109.33 580.75 1115.17 579.25C1121.17 577.75 1126.5 575.917 1131.17 573.75L1138.67 588.75C1133.5 591.417 1126.58 593.667 1117.92 595.5C1109.42 597.5 1101.67 598.5 1094.67 598.5C1068.5 598.5 1049.67 589.833 1038.17 572.5C1026.67 555 1020.92 534.5 1020.92 511C1020.92 485.833 1027.25 464.667 1039.92 447.5C1052.75 430.167 1071.42 421.5 1095.92 421.5C1101.08 421.5 1108.08 422.25 1116.92 423.75C1125.92 425.25 1133.08 427.75 1138.42 431.25L1132.17 445.75ZM1184.08 560.5C1184.08 565.667 1185.83 570.583 1189.33 575.25C1193 579.917 1198.83 582.25 1206.83 582.25C1213.83 582.25 1220.25 580.5 1226.08 577C1231.92 573.5 1236.92 569.333 1241.08 564.5V536.75H1209.08C1200.92 536.75 1194.67 539.167 1190.33 544C1186.17 548.667 1184.08 554.167 1184.08 560.5ZM1173.58 481.25C1178.25 478.083 1184.83 475.5 1193.33 473.5C1201.83 471.5 1208.58 470.5 1213.58 470.5C1227.58 470.5 1238.92 474.333 1247.58 482C1256.42 489.5 1260.83 499.333 1260.83 511.5V595H1248.83L1243.58 582.75C1239.42 586.583 1234 590.083 1227.33 593.25C1220.67 596.417 1214 598 1207.33 598C1193.33 598 1182.92 594.5 1176.08 587.5C1169.25 580.333 1165.83 571.333 1165.83 560.5C1165.83 548.5 1169.83 539.417 1177.83 533.25C1186 526.917 1196.58 523.75 1209.58 523.75H1240.83C1240.83 513.75 1239.25 505.25 1236.08 498.25C1232.92 491.25 1225.67 487.75 1214.33 487.75C1206.17 487.75 1199.42 488.667 1194.08 490.5C1188.75 492.333 1183.83 494.25 1179.33 496.25C1178.5 493.75 1177.58 491.25 1176.58 488.75C1175.58 486.25 1174.58 483.75 1173.58 481.25ZM1367.56 495.75C1363.56 493.75 1358.98 491.833 1353.81 490C1348.64 488.167 1342.48 487.25 1335.31 487.25C1327.98 487.25 1322.06 488.75 1317.56 491.75C1313.23 494.75 1311.06 498.833 1311.06 504C1311.06 508.667 1313.56 512.667 1318.56 516C1323.73 519.167 1330.31 522.083 1338.31 524.75C1348.14 528.25 1357.31 533 1365.81 539C1374.48 545 1378.81 553 1378.81 563C1378.81 574 1374.64 582.667 1366.31 589C1358.14 595.167 1346.14 598.25 1330.31 598.25C1325.14 598.25 1318.64 597.333 1310.81 595.5C1302.98 593.833 1296.56 591.333 1291.56 588L1297.56 573C1302.23 575.333 1307.39 577.333 1313.06 579C1318.89 580.667 1324.73 581.5 1330.56 581.5C1339.56 581.5 1346.56 580.083 1351.56 577.25C1356.56 574.417 1359.06 570.083 1359.06 564.25C1359.06 559.083 1356.31 554.583 1350.81 550.75C1345.31 546.75 1338.48 543.417 1330.31 540.75C1320.81 537.583 1311.81 533.25 1303.31 527.75C1294.98 522.083 1290.81 514.5 1290.81 505C1290.81 494.167 1294.81 485.75 1302.81 479.75C1310.98 473.583 1321.98 470.5 1335.81 470.5C1340.98 470.5 1347.39 471.5 1355.06 473.5C1362.73 475.333 1368.89 477.917 1373.56 481.25L1367.56 495.75ZM1459.38 487.25C1447.05 487.25 1437.96 491.75 1432.13 500.75C1426.3 509.583 1423.3 520.583 1423.13 533.75C1423.13 547.417 1425.88 558.833 1431.38 568C1436.88 577 1445.88 581.5 1458.38 581.5C1466.55 581.5 1472.71 580.667 1476.88 579C1481.05 577.333 1485.46 575.333 1490.13 573L1496.13 587.5C1490.96 590.833 1484.71 593.417 1477.38 595.25C1470.05 597.25 1463.8 598.25 1458.63 598.25C1440.3 598.25 1426.38 592.25 1416.88 580.25C1407.55 568.25 1402.88 552.833 1402.88 534C1403.05 515.5 1407.96 500.333 1417.63 488.5C1427.46 476.5 1441.55 470.5 1459.88 470.5C1464.71 470.5 1470.8 471.5 1478.13 473.5C1485.63 475.333 1491.96 478 1497.13 481.5L1491.13 495.75C1486.46 493.583 1481.96 491.667 1477.63 490C1473.46 488.167 1467.38 487.25 1459.38 487.25ZM1538.82 560.5C1538.82 565.667 1540.57 570.583 1544.07 575.25C1547.74 579.917 1553.57 582.25 1561.57 582.25C1568.57 582.25 1574.99 580.5 1580.82 577C1586.65 573.5 1591.65 569.333 1595.82 564.5V536.75H1563.82C1555.65 536.75 1549.4 539.167 1545.07 544C1540.9 548.667 1538.82 554.167 1538.82 560.5ZM1528.32 481.25C1532.99 478.083 1539.57 475.5 1548.07 473.5C1556.57 471.5 1563.32 470.5 1568.32 470.5C1582.32 470.5 1593.65 474.333 1602.32 482C1611.15 489.5 1615.57 499.333 1615.57 511.5V595H1603.57L1598.32 582.75C1594.15 586.583 1588.74 590.083 1582.07 593.25C1575.4 596.417 1568.74 598 1562.07 598C1548.07 598 1537.65 594.5 1530.82 587.5C1523.99 580.333 1520.57 571.333 1520.57 560.5C1520.57 548.5 1524.57 539.417 1532.57 533.25C1540.74 526.917 1551.32 523.75 1564.32 523.75H1595.57C1595.57 513.75 1593.99 505.25 1590.82 498.25C1587.65 491.25 1580.4 487.75 1569.07 487.75C1560.9 487.75 1554.15 488.667 1548.82 490.5C1543.49 492.333 1538.57 494.25 1534.07 496.25C1533.24 493.75 1532.32 491.25 1531.32 488.75C1530.32 486.25 1529.32 483.75 1528.32 481.25ZM1702.29 487C1689.13 487 1679.79 491.667 1674.29 501C1668.96 510.167 1666.29 521.25 1666.29 534.25C1666.29 547.75 1668.96 559 1674.29 568C1679.63 576.833 1688.96 581.25 1702.29 581.25C1706.96 581.25 1711.96 580.167 1717.29 578C1722.63 575.667 1727.63 572.417 1732.29 568.25V500.25C1727.63 496.083 1722.63 492.833 1717.29 490.5C1711.96 488.167 1706.96 487 1702.29 487ZM1752.29 418.75V595H1740.54L1735.29 584C1730.13 588.167 1724.21 591.583 1717.54 594.25C1711.04 596.917 1704.79 598.25 1698.79 598.25C1681.13 598.25 1667.88 592.25 1659.04 580.25C1650.38 568.083 1646.04 552.833 1646.04 534.5C1646.04 515.833 1650.46 500.5 1659.29 488.5C1668.29 476.333 1681.63 470.25 1699.29 470.25C1704.46 470.25 1710.04 471.417 1716.04 473.75C1722.04 475.917 1727.46 478.833 1732.29 482.5V421L1752.29 418.75ZM1892.97 537.5H1804.97C1805.47 550.333 1808.89 561 1815.22 569.5C1821.56 577.833 1831.56 582 1845.22 582C1853.39 582 1859.97 581.167 1864.97 579.5C1870.14 577.667 1875.06 575.667 1879.72 573.5L1885.97 588C1880.81 591.5 1874.06 594 1865.72 595.5C1857.39 597.167 1850.72 598 1845.72 598C1825.56 598 1810.31 592.083 1799.97 580.25C1789.64 568.25 1784.47 552.833 1784.47 534C1784.64 515.667 1789.56 500.5 1799.22 488.5C1809.06 476.5 1822.97 470.5 1840.97 470.5C1859.81 470.5 1873.14 477.167 1880.97 490.5C1888.97 503.667 1892.97 519.333 1892.97 537.5ZM1873.47 524C1872.14 513.167 1868.89 504.333 1863.72 497.5C1858.56 490.667 1850.72 487.25 1840.22 487.25C1829.72 487.25 1821.56 490.667 1815.72 497.5C1810.06 504.333 1806.64 513.167 1805.47 524H1873.47ZM1921.55 568.25C1925.22 568.25 1928.3 569.583 1930.8 572.25C1933.47 574.75 1934.8 577.833 1934.8 581.5C1934.8 585.333 1933.47 588.583 1930.8 591.25C1928.3 593.75 1925.22 595 1921.55 595C1917.72 595 1914.47 593.75 1911.8 591.25C1909.14 588.583 1907.8 585.333 1907.8 581.5C1907.8 577.833 1909.14 574.75 1911.8 572.25C1914.47 569.583 1917.72 568.25 1921.55 568.25ZM1969.23 449.75C1965.4 449.75 1962.15 448.5 1959.48 446C1956.98 443.333 1955.73 440.083 1955.73 436.25C1955.73 432.583 1956.98 429.5 1959.48 427C1962.15 424.333 1965.4 423 1969.23 423C1972.9 423 1976.07 424.333 1978.73 427C1981.4 429.5 1982.73 432.583 1982.73 436.25C1982.73 440.083 1981.4 443.333 1978.73 446C1976.07 448.5 1972.9 449.75 1969.23 449.75ZM1959.23 602.5V473.75H1979.23V592.75C1979.23 608.75 1977.23 620.667 1973.23 628.5C1969.23 636.5 1959.23 643 1943.23 648L1935.73 633.75C1944.07 630.583 1950.07 626.833 1953.73 622.5C1957.4 618.333 1959.23 611.667 1959.23 602.5ZM2087.77 495.75C2083.77 493.75 2079.19 491.833 2074.02 490C2068.86 488.167 2062.69 487.25 2055.52 487.25C2048.19 487.25 2042.27 488.75 2037.77 491.75C2033.44 494.75 2031.27 498.833 2031.27 504C2031.27 508.667 2033.77 512.667 2038.77 516C2043.94 519.167 2050.52 522.083 2058.52 524.75C2068.36 528.25 2077.52 533 2086.02 539C2094.69 545 2099.02 553 2099.02 563C2099.02 574 2094.86 582.667 2086.52 589C2078.36 595.167 2066.36 598.25 2050.52 598.25C2045.36 598.25 2038.86 597.333 2031.02 595.5C2023.19 593.833 2016.77 591.333 2011.77 588L2017.77 573C2022.44 575.333 2027.61 577.333 2033.27 579C2039.11 580.667 2044.94 581.5 2050.77 581.5C2059.77 581.5 2066.77 580.083 2071.77 577.25C2076.77 574.417 2079.27 570.083 2079.27 564.25C2079.27 559.083 2076.52 554.583 2071.02 550.75C2065.52 546.75 2058.69 543.417 2050.52 540.75C2041.02 537.583 2032.02 533.25 2023.52 527.75C2015.19 522.083 2011.02 514.5 2011.02 505C2011.02 494.167 2015.02 485.75 2023.02 479.75C2031.19 473.583 2042.19 470.5 2056.02 470.5C2061.19 470.5 2067.61 471.5 2075.27 473.5C2082.94 475.333 2089.11 477.917 2093.77 481.25L2087.77 495.75Z" fill="#323330"/>
<path d="M633.75 568.75H632.75V569.198L633.084 569.496L633.75 568.75ZM648.5 578.25L648.113 579.172L648.124 579.176L648.5 578.25ZM691.25 567.75L692.107 568.264L691.25 567.75ZM691.5 500.75L690.636 501.253L690.64 501.26L691.5 500.75ZM648.5 490.5L648.887 491.422L648.894 491.419L648.901 491.416L648.5 490.5ZM633.75 500L633.084 499.254L632.75 499.552V500H633.75ZM614 649.75H613V650.899L614.138 650.74L614 649.75ZM614 473.75V472.75H613V473.75H614ZM625.75 473.75L626.672 473.364L626.415 472.75H625.75V473.75ZM630.25 484.5L629.328 484.886L629.831 486.089L630.862 485.291L630.25 484.5ZM647.75 474.5L648.13 475.425L648.141 475.42L647.75 474.5ZM706.25 488.5L707.064 487.92L706.25 488.5ZM706 580L705.195 579.407L705.189 579.415L706 580ZM649.75 595L649.402 595.937L649.414 595.942L649.426 595.946L649.75 595ZM633.75 586.25L634.354 585.453L632.75 584.236V586.25H633.75ZM633.75 647L633.888 647.99L634.75 647.87V647H633.75ZM633.084 569.496C637.824 573.728 642.833 576.958 648.113 579.172L648.887 577.328C643.833 575.209 639.01 572.105 634.416 568.004L633.084 569.496ZM648.124 579.176C653.549 581.381 658.678 582.5 663.5 582.5V580.5C658.989 580.5 654.117 579.453 648.876 577.324L648.124 579.176ZM663.5 582.5C676.763 582.5 686.385 577.801 692.107 568.264L690.393 567.236C685.115 576.032 676.237 580.5 663.5 580.5V582.5ZM692.107 568.264C697.719 558.912 700.5 547.642 700.5 534.5H698.5C698.5 547.358 695.781 558.255 690.393 567.236L692.107 568.264ZM700.5 534.5C700.5 520.872 697.808 509.433 692.36 500.24L690.64 501.26C695.859 510.067 698.5 521.128 698.5 534.5H700.5ZM692.364 500.247C686.804 490.691 677.083 486 663.5 486V488C676.584 488 685.529 492.476 690.636 501.253L692.364 500.247ZM663.5 486C658.666 486 653.529 487.208 648.099 489.584L648.901 491.416C654.138 489.125 659.001 488 663.5 488V486ZM648.113 489.578C642.833 491.792 637.824 495.022 633.084 499.254L634.416 500.746C639.01 496.645 643.833 493.541 648.887 491.422L648.113 489.578ZM632.75 500V568.75H634.75V500H632.75ZM615 649.75V473.75H613V649.75H615ZM614 474.75H625.75V472.75H614V474.75ZM624.828 474.136L629.328 484.886L631.172 484.114L626.672 473.364L624.828 474.136ZM630.862 485.291C635.953 481.35 641.707 478.06 648.13 475.425L647.37 473.575C640.793 476.273 634.881 479.65 629.638 483.709L630.862 485.291ZM648.141 475.42C654.713 472.627 660.829 471.25 666.5 471.25V469.25C660.504 469.25 654.12 470.706 647.359 473.58L648.141 475.42ZM666.5 471.25C684.081 471.25 696.994 477.23 705.436 489.08L707.064 487.92C698.172 475.437 684.585 469.25 666.5 469.25V471.25ZM705.436 489.08C713.956 501.042 718.25 516.077 718.25 534.25H720.25C720.25 515.757 715.877 500.291 707.064 487.92L705.436 489.08ZM718.25 534.25C718.25 552.589 713.874 567.617 705.195 579.407L706.805 580.593C715.793 568.383 720.25 552.911 720.25 534.25H718.25ZM705.189 579.415C696.748 591.102 683.916 597 666.5 597V599C684.417 599 697.918 592.898 706.811 580.585L705.189 579.415ZM666.5 597C661.293 597 655.819 596.024 650.074 594.054L649.426 595.946C655.347 597.976 661.041 599 666.5 599V597ZM650.098 594.063C644.354 591.929 639.108 589.059 634.354 585.453L633.146 587.047C638.059 590.774 643.479 593.738 649.402 595.937L650.098 594.063ZM632.75 586.25V647H634.75V586.25H632.75ZM633.612 646.01L613.862 648.76L614.138 650.74L633.888 647.99L633.612 646.01ZM852.689 537.5V538.5H853.689V537.5H852.689ZM764.689 537.5V536.5H763.65L763.69 537.539L764.689 537.5ZM774.939 569.5L774.138 570.098L774.143 570.105L774.939 569.5ZM824.689 579.5L825.006 580.449L825.015 580.446L825.024 580.442L824.689 579.5ZM839.439 573.5L840.358 573.104L839.951 572.16L839.018 572.593L839.439 573.5ZM845.689 588L846.25 588.828L846.935 588.364L846.608 587.604L845.689 588ZM825.439 595.5L825.262 594.516L825.253 594.518L825.243 594.519L825.439 595.5ZM759.689 580.25L758.932 580.903L758.936 580.908L759.689 580.25ZM744.189 534L743.189 533.991V534H744.189ZM758.939 488.5L758.166 487.866L758.161 487.873L758.939 488.5ZM840.689 490.5L839.827 491.007L839.831 491.013L839.835 491.019L840.689 490.5ZM833.189 524V525H834.32L834.182 523.878L833.189 524ZM823.439 497.5L824.237 496.897L823.439 497.5ZM775.439 497.5L774.679 496.851L774.674 496.856L774.67 496.862L775.439 497.5ZM765.189 524L764.195 523.893L764.076 525H765.189V524ZM852.689 536.5H764.689V538.5H852.689V536.5ZM763.69 537.539C764.196 550.531 767.66 561.404 774.138 570.097L775.741 568.903C769.552 560.596 766.183 550.136 765.689 537.461L763.69 537.539ZM774.143 570.105C780.721 578.76 791.064 583 804.939 583V581C791.481 581 781.825 576.907 775.736 568.895L774.143 570.105ZM804.939 583C813.161 583 819.864 582.163 825.006 580.449L824.373 578.551C819.515 580.171 813.051 581 804.939 581V583ZM825.024 580.442C830.218 578.599 835.164 576.588 839.861 574.407L839.018 572.593C834.382 574.746 829.494 576.734 824.355 578.558L825.024 580.442ZM838.521 573.896L844.771 588.396L846.608 587.604L840.358 573.104L838.521 573.896ZM845.129 587.172C840.111 590.571 833.504 593.032 825.262 594.516L825.617 596.484C834.041 594.968 840.935 592.429 846.25 588.828L845.129 587.172ZM825.243 594.519C816.937 596.181 810.344 597 805.439 597V599C810.535 599 817.276 598.153 825.636 596.481L825.243 594.519ZM805.439 597C785.474 597 770.535 591.15 760.443 579.592L758.936 580.908C769.51 593.017 785.072 599 805.439 599V597ZM760.447 579.597C750.299 567.812 745.189 552.641 745.189 534H743.189C743.189 553.025 748.414 568.688 758.932 580.903L760.447 579.597ZM745.189 534.009C745.354 515.857 750.218 500.92 759.718 489.127L758.161 487.873C748.327 500.08 743.358 515.477 743.189 533.991L745.189 534.009ZM759.713 489.134C769.325 477.404 782.935 471.5 800.689 471.5V469.5C782.443 469.5 768.221 475.596 758.166 487.866L759.713 489.134ZM800.689 471.5C819.259 471.5 832.215 478.05 839.827 491.007L841.552 489.993C833.497 476.284 819.787 469.5 800.689 469.5V471.5ZM839.835 491.019C847.724 504.003 851.689 519.483 851.689 537.5H853.689C853.689 519.183 849.655 503.33 841.544 489.981L839.835 491.019ZM834.182 523.878C832.833 512.917 829.535 503.904 824.237 496.897L822.642 498.103C827.677 504.763 830.879 513.416 832.197 524.122L834.182 523.878ZM824.237 496.897C818.838 489.757 810.674 486.25 799.939 486.25V488.25C810.205 488.25 817.707 491.577 822.642 498.103L824.237 496.897ZM799.939 486.25C789.202 486.25 780.735 489.756 774.679 496.851L776.2 498.149C781.811 491.577 789.677 488.25 799.939 488.25V486.25ZM774.67 496.862C768.852 503.877 765.378 512.909 764.195 523.893L766.184 524.107C767.334 513.424 770.694 504.789 776.209 498.138L774.67 496.862ZM765.189 525H833.189V523H765.189V525ZM901.77 491.25L900.828 491.586L901.397 493.179L902.518 491.913L901.77 491.25ZM921.77 476.5L922.209 477.398L922.217 477.394L922.224 477.391L921.77 476.5ZM975.52 482.5L974.745 483.132L974.751 483.14L975.52 482.5ZM985.52 594.75V595.75H986.52V594.75H985.52ZM965.77 594.75H964.77V595.75H965.77V594.75ZM941.27 487L941.29 486L941.28 486H941.27V487ZM922.27 492.25L921.847 491.344L921.839 491.348L922.27 492.25ZM903.27 506.75L902.513 506.096L902.27 506.378V506.75H903.27ZM903.27 595V596H904.27V595H903.27ZM883.52 595H882.52V596H883.52V595ZM883.52 473.75V472.75H882.52V473.75H883.52ZM895.52 473.75L896.461 473.414L896.224 472.75H895.52V473.75ZM902.518 491.913C907.585 486.192 914.141 481.35 922.209 477.398L921.33 475.602C913.065 479.65 906.287 484.641 901.021 490.587L902.518 491.913ZM922.224 477.391C930.288 473.276 937.799 471.25 944.77 471.25V469.25C937.407 469.25 929.584 471.39 921.315 475.609L922.224 477.391ZM944.77 471.25C958.403 471.25 968.324 475.267 974.745 483.132L976.294 481.868C969.382 473.4 958.802 469.25 944.77 469.25V471.25ZM974.751 483.14C981.244 490.931 984.52 500.776 984.52 512.75H986.52C986.52 500.391 983.129 490.069 976.288 481.86L974.751 483.14ZM984.52 512.75V594.75H986.52V512.75H984.52ZM985.52 593.75H965.77V595.75H985.52V593.75ZM966.77 594.75V515.5H964.77V594.75H966.77ZM966.77 515.5C966.77 507.167 964.726 500.192 960.57 494.65L958.97 495.85C962.813 500.974 964.77 507.5 964.77 515.5H966.77ZM960.57 494.65C956.339 489.01 949.846 486.171 941.29 486L941.25 488C949.36 488.162 955.2 490.824 958.97 495.85L960.57 494.65ZM941.27 486C935.895 486 929.408 487.815 921.847 491.344L922.692 493.156C930.131 489.685 936.311 488 941.27 488V486ZM921.839 491.348C914.381 494.907 907.936 499.825 902.513 506.096L904.026 507.404C909.269 501.341 915.492 496.593 922.7 493.152L921.839 491.348ZM902.27 506.75V595H904.27V506.75H902.27ZM903.27 594H883.52V596H903.27V594ZM884.52 595V473.75H882.52V595H884.52ZM883.52 474.75H895.52V472.75H883.52V474.75ZM894.578 474.086L900.828 491.586L902.711 490.914L896.461 473.414L894.578 474.086ZM1132.17 445.75L1131.81 446.684L1132.71 447.027L1133.09 446.146L1132.17 445.75ZM1095.92 438.5V437.5L1095.91 437.5L1095.92 438.5ZM1056.17 458.75L1055.36 458.156L1055.36 458.163L1056.17 458.75ZM1053.92 560.75L1053.05 561.254L1053.06 561.266L1053.92 560.75ZM1115.17 579.25L1114.93 578.28L1114.92 578.281L1115.17 579.25ZM1131.17 573.75L1132.06 573.303L1131.63 572.434L1130.75 572.843L1131.17 573.75ZM1138.67 588.75L1139.13 589.639L1140 589.186L1139.56 588.303L1138.67 588.75ZM1117.92 595.5L1117.71 594.522L1117.7 594.524L1117.69 594.527L1117.92 595.5ZM1038.17 572.5L1037.33 573.049L1037.33 573.053L1038.17 572.5ZM1039.92 447.5L1039.11 446.905L1039.11 446.906L1039.92 447.5ZM1116.92 423.75L1116.75 424.736L1116.75 424.736L1116.92 423.75ZM1138.42 431.25L1139.34 431.646L1139.67 430.875L1138.97 430.414L1138.42 431.25ZM1132.53 444.816C1126.83 442.639 1121.46 440.877 1116.43 439.534L1115.91 441.466C1120.87 442.789 1126.17 444.528 1131.81 446.684L1132.53 444.816ZM1116.43 439.534C1111.31 438.168 1104.46 437.5 1095.92 437.5V439.5C1104.38 439.5 1111.03 440.165 1115.91 441.466L1116.43 439.534ZM1095.91 437.5C1078.93 437.67 1065.38 444.569 1055.36 458.156L1056.97 459.344C1066.62 446.265 1079.57 439.663 1095.93 439.5L1095.91 437.5ZM1055.36 458.163C1045.54 471.711 1040.67 489.268 1040.67 510.75H1042.67C1042.67 489.565 1047.47 472.455 1056.98 459.337L1055.36 458.163ZM1040.67 510.75C1040.67 530.226 1044.78 547.074 1053.05 561.254L1054.78 560.246C1046.72 546.426 1042.67 529.941 1042.67 510.75H1040.67ZM1053.06 561.266C1061.6 575.442 1075.2 582.5 1093.67 582.5V580.5C1075.8 580.5 1062.9 573.725 1054.77 560.234L1053.06 561.266ZM1093.67 582.5C1102.22 582.5 1109.48 581.746 1115.42 580.219L1114.92 578.281C1109.19 579.754 1102.12 580.5 1093.67 580.5V582.5ZM1115.41 580.22C1121.46 578.708 1126.85 576.855 1131.59 574.657L1130.75 572.843C1126.15 574.978 1120.88 576.792 1114.93 578.28L1115.41 580.22ZM1130.27 574.197L1137.77 589.197L1139.56 588.303L1132.06 573.303L1130.27 574.197ZM1138.21 587.861C1133.15 590.472 1126.33 592.698 1117.71 594.522L1118.12 596.478C1126.84 594.635 1133.85 592.362 1139.13 589.639L1138.21 587.861ZM1117.69 594.527C1109.25 596.513 1101.57 597.5 1094.67 597.5V599.5C1101.76 599.5 1109.59 598.487 1118.15 596.473L1117.69 594.527ZM1094.67 597.5C1068.74 597.5 1050.27 588.928 1039 571.947L1037.33 573.053C1049.07 590.738 1068.26 599.5 1094.67 599.5V597.5ZM1039 571.951C1027.62 554.633 1021.92 534.329 1021.92 511H1019.92C1019.92 534.671 1025.71 555.367 1037.33 573.049L1039 571.951ZM1021.92 511C1021.92 486.007 1028.2 465.059 1040.72 448.094L1039.11 446.906C1026.3 464.274 1019.92 485.659 1019.92 511H1021.92ZM1040.72 448.095C1053.34 431.054 1071.69 422.5 1095.92 422.5V420.5C1071.15 420.5 1052.16 429.28 1039.11 446.905L1040.72 448.095ZM1095.92 422.5C1101 422.5 1107.94 423.24 1116.75 424.736L1117.09 422.764C1108.23 421.26 1101.17 420.5 1095.92 420.5V422.5ZM1116.75 424.736C1125.67 426.223 1132.69 428.688 1137.87 432.086L1138.97 430.414C1133.48 426.812 1126.16 424.277 1117.08 422.764L1116.75 424.736ZM1137.5 430.854L1131.25 445.354L1133.09 446.146L1139.34 431.646L1137.5 430.854ZM1189.33 575.25L1188.53 575.85L1188.54 575.859L1188.55 575.868L1189.33 575.25ZM1226.08 577L1226.6 577.857L1226.08 577ZM1241.08 564.5L1241.84 565.153L1242.08 564.872V564.5H1241.08ZM1241.08 536.75H1242.08V535.75H1241.08V536.75ZM1190.33 544L1189.59 543.332L1189.59 543.334L1190.33 544ZM1173.58 481.25L1173.02 480.423L1172.35 480.874L1172.65 481.621L1173.58 481.25ZM1193.33 473.5L1193.56 474.473L1193.33 473.5ZM1247.58 482L1246.92 482.749L1246.93 482.756L1246.93 482.762L1247.58 482ZM1260.83 595V596H1261.83V595H1260.83ZM1248.83 595L1247.91 595.394L1248.17 596H1248.83V595ZM1243.58 582.75L1244.5 582.356L1243.94 581.058L1242.9 582.014L1243.58 582.75ZM1227.33 593.25L1227.76 594.153L1227.33 593.25ZM1176.08 587.5L1175.36 588.19L1175.37 588.199L1176.08 587.5ZM1177.83 533.25L1178.44 534.042L1178.44 534.04L1177.83 533.25ZM1240.83 523.75V524.75H1241.83V523.75H1240.83ZM1179.33 496.25L1178.38 496.566L1178.73 497.611L1179.74 497.164L1179.33 496.25ZM1176.58 488.75L1175.65 489.121L1176.58 488.75ZM1183.08 560.5C1183.08 565.911 1184.92 571.034 1188.53 575.85L1190.13 574.65C1186.74 570.133 1185.08 565.423 1185.08 560.5H1183.08ZM1188.55 575.868C1192.46 580.853 1198.64 583.25 1206.83 583.25V581.25C1199.02 581.25 1193.53 578.98 1190.12 574.632L1188.55 575.868ZM1206.83 583.25C1214.01 583.25 1220.6 581.454 1226.6 577.857L1225.57 576.143C1219.89 579.546 1213.66 581.25 1206.83 581.25V583.25ZM1226.6 577.857C1232.52 574.306 1237.6 570.072 1241.84 565.153L1240.32 563.847C1236.23 568.595 1231.32 572.694 1225.57 576.143L1226.6 577.857ZM1242.08 564.5V536.75H1240.08V564.5H1242.08ZM1241.08 535.75H1209.08V537.75H1241.08V535.75ZM1209.08 535.75C1200.71 535.75 1194.16 538.235 1189.59 543.332L1191.08 544.668C1195.17 540.098 1201.12 537.75 1209.08 537.75V535.75ZM1189.59 543.334C1185.25 548.186 1183.08 553.924 1183.08 560.5H1185.08C1185.08 554.409 1187.08 549.147 1191.08 544.666L1189.59 543.334ZM1174.14 482.077C1178.67 479.006 1185.12 476.459 1193.56 474.473L1193.1 472.527C1184.54 474.541 1177.83 477.16 1173.02 480.423L1174.14 482.077ZM1193.56 474.473C1202.03 472.48 1208.7 471.5 1213.58 471.5V469.5C1208.47 469.5 1201.63 470.52 1193.1 472.527L1193.56 474.473ZM1213.58 471.5C1227.39 471.5 1238.47 475.276 1246.92 482.749L1248.24 481.251C1239.36 473.39 1227.77 469.5 1213.58 469.5V471.5ZM1246.93 482.762C1255.53 490.062 1259.83 499.61 1259.83 511.5H1261.83C1261.83 499.057 1257.3 488.938 1248.23 481.238L1246.93 482.762ZM1259.83 511.5V595H1261.83V511.5H1259.83ZM1260.83 594H1248.83V596H1260.83V594ZM1249.75 594.606L1244.5 582.356L1242.66 583.144L1247.91 595.394L1249.75 594.606ZM1242.9 582.014C1238.83 585.763 1233.5 589.211 1226.9 592.347L1227.76 594.153C1234.49 590.956 1240 587.404 1244.26 583.486L1242.9 582.014ZM1226.9 592.347C1220.36 595.457 1213.84 597 1207.33 597V599C1214.16 599 1220.97 597.377 1227.76 594.153L1226.9 592.347ZM1207.33 597C1193.48 597 1183.37 593.538 1176.8 586.801L1175.37 588.199C1182.46 595.462 1193.18 599 1207.33 599V597ZM1176.81 586.81C1170.17 579.848 1166.83 571.103 1166.83 560.5H1164.83C1164.83 571.564 1168.33 580.819 1175.36 588.19L1176.81 586.81ZM1166.83 560.5C1166.83 548.745 1170.74 539.983 1178.44 534.042L1177.22 532.458C1168.93 538.851 1164.83 548.255 1164.83 560.5H1166.83ZM1178.44 534.04C1186.4 527.875 1196.75 524.75 1209.58 524.75V522.75C1196.42 522.75 1185.6 525.959 1177.22 532.46L1178.44 534.04ZM1209.58 524.75H1240.83V522.75H1209.58V524.75ZM1241.83 523.75C1241.83 513.649 1240.23 505 1236.99 497.838L1235.17 498.662C1238.26 505.5 1239.83 513.851 1239.83 523.75H1241.83ZM1236.99 497.838C1233.59 490.319 1225.84 486.75 1214.33 486.75V488.75C1225.49 488.75 1232.24 492.181 1235.17 498.662L1236.99 497.838ZM1214.33 486.75C1206.1 486.75 1199.23 487.673 1193.76 489.554L1194.41 491.446C1199.6 489.661 1206.23 488.75 1214.33 488.75V486.75ZM1193.76 489.554C1188.4 491.396 1183.46 493.323 1178.93 495.336L1179.74 497.164C1184.21 495.177 1189.1 493.271 1194.41 491.446L1193.76 489.554ZM1180.28 495.934C1179.44 493.415 1178.52 490.896 1177.51 488.379L1175.65 489.121C1176.65 491.604 1177.56 494.085 1178.38 496.566L1180.28 495.934ZM1177.51 488.379C1176.51 485.879 1175.51 483.379 1174.51 480.879L1172.65 481.621C1173.65 484.121 1174.65 486.621 1175.65 489.121L1177.51 488.379ZM1367.56 495.75L1367.11 496.644L1368.07 497.125L1368.48 496.132L1367.56 495.75ZM1353.81 490L1354.14 489.058L1353.81 490ZM1317.56 491.75L1317 490.918L1317 490.923L1316.99 490.928L1317.56 491.75ZM1318.56 516L1318 516.832L1318.02 516.843L1318.04 516.853L1318.56 516ZM1338.31 524.75L1338.64 523.808L1338.63 523.805L1338.62 523.801L1338.31 524.75ZM1365.81 539L1365.23 539.817L1365.24 539.822L1365.81 539ZM1366.31 589L1366.91 589.798L1366.91 589.796L1366.31 589ZM1310.81 595.5L1311.04 594.526L1311.03 594.524L1311.02 594.522L1310.81 595.5ZM1291.56 588L1290.63 587.629L1290.33 588.382L1291 588.832L1291.56 588ZM1297.56 573L1298.01 572.106L1297.03 571.62L1296.63 572.629L1297.56 573ZM1313.06 579L1312.78 579.959L1312.78 579.962L1313.06 579ZM1351.56 577.25L1352.05 578.12L1351.56 577.25ZM1350.81 550.75L1350.22 551.559L1350.23 551.565L1350.24 551.57L1350.81 550.75ZM1330.31 540.75L1329.99 541.699L1330 541.701L1330.31 540.75ZM1303.31 527.75L1302.75 528.577L1302.76 528.583L1302.77 528.59L1303.31 527.75ZM1302.81 479.75L1303.41 480.55L1303.41 480.548L1302.81 479.75ZM1355.06 473.5L1354.81 474.468L1354.82 474.47L1354.83 474.473L1355.06 473.5ZM1373.56 481.25L1374.48 481.632L1374.79 480.898L1374.14 480.436L1373.56 481.25ZM1368.01 494.856C1363.96 492.834 1359.34 490.902 1354.14 489.058L1353.47 490.942C1358.61 492.765 1363.16 494.666 1367.11 496.644L1368.01 494.856ZM1354.14 489.058C1348.84 487.176 1342.56 486.25 1335.31 486.25V488.25C1342.39 488.25 1348.44 489.157 1353.47 490.942L1354.14 489.058ZM1335.31 486.25C1327.85 486.25 1321.72 487.776 1317 490.918L1318.11 492.582C1322.4 489.724 1328.1 488.25 1335.31 488.25V486.25ZM1316.99 490.928C1312.39 494.11 1310.06 498.497 1310.06 504H1312.06C1312.06 499.169 1314.06 495.39 1318.13 492.572L1316.99 490.928ZM1310.06 504C1310.06 509.096 1312.82 513.373 1318 516.832L1319.11 515.168C1314.3 511.96 1312.06 508.237 1312.06 504H1310.06ZM1318.04 516.853C1323.29 520.071 1329.95 523.017 1337.99 525.699L1338.62 523.801C1330.67 521.15 1324.16 518.262 1319.08 515.147L1318.04 516.853ZM1337.97 525.692C1347.72 529.162 1356.81 533.87 1365.23 539.817L1366.39 538.183C1357.81 532.13 1348.56 527.338 1338.64 523.808L1337.97 525.692ZM1365.24 539.822C1373.65 545.647 1377.81 553.349 1377.81 563H1379.81C1379.81 552.651 1375.3 544.353 1366.38 538.178L1365.24 539.822ZM1377.81 563C1377.81 573.706 1373.77 582.071 1365.7 588.204L1366.91 589.796C1375.51 583.263 1379.81 574.294 1379.81 563H1377.81ZM1365.71 588.202C1357.78 594.183 1346.04 597.25 1330.31 597.25V599.25C1346.25 599.25 1358.5 596.15 1366.91 589.798L1365.71 588.202ZM1330.31 597.25C1325.25 597.25 1318.83 596.351 1311.04 594.526L1310.58 596.474C1318.45 598.316 1325.04 599.25 1330.31 599.25V597.25ZM1311.02 594.522C1303.27 592.873 1296.98 590.412 1292.11 587.168L1291 588.832C1296.14 592.255 1302.68 594.793 1310.6 596.478L1311.02 594.522ZM1292.49 588.371L1298.49 573.371L1296.63 572.629L1290.63 587.629L1292.49 588.371ZM1297.11 573.894C1301.84 576.257 1307.06 578.278 1312.78 579.959L1313.34 578.041C1307.72 576.389 1302.61 574.409 1298.01 572.106L1297.11 573.894ZM1312.78 579.962C1318.7 581.653 1324.63 582.5 1330.56 582.5V580.5C1324.82 580.5 1319.08 579.681 1313.33 578.038L1312.78 579.962ZM1330.56 582.5C1339.64 582.5 1346.84 581.074 1352.05 578.12L1351.07 576.38C1346.28 579.093 1339.47 580.5 1330.56 580.5V582.5ZM1352.05 578.12C1357.37 575.106 1360.06 570.437 1360.06 564.25H1358.06C1358.06 569.73 1355.75 573.727 1351.07 576.38L1352.05 578.12ZM1360.06 564.25C1360.06 558.661 1357.06 553.888 1351.38 549.93L1350.24 551.57C1355.56 555.278 1358.06 559.505 1358.06 564.25H1360.06ZM1351.4 549.941C1345.79 545.866 1338.86 542.49 1330.62 539.799L1330 541.701C1338.09 544.343 1344.82 547.634 1350.22 551.559L1351.4 549.941ZM1330.62 539.801C1321.21 536.662 1312.28 532.365 1303.85 526.91L1302.77 528.59C1311.34 534.135 1320.41 538.505 1329.99 541.699L1330.62 539.801ZM1303.87 526.923C1295.79 521.429 1291.81 514.146 1291.81 505H1289.81C1289.81 514.854 1294.16 522.738 1302.75 528.577L1303.87 526.923ZM1291.81 505C1291.81 494.451 1295.68 486.344 1303.41 480.55L1302.21 478.95C1293.93 485.156 1289.81 493.882 1289.81 505H1291.81ZM1303.41 480.548C1311.35 474.552 1322.12 471.5 1335.81 471.5V469.5C1321.83 469.5 1310.6 472.615 1302.21 478.952L1303.41 480.548ZM1335.81 471.5C1340.86 471.5 1347.18 472.479 1354.81 474.468L1355.31 472.532C1347.6 470.521 1341.09 469.5 1335.81 469.5V471.5ZM1354.83 474.473C1362.41 476.286 1368.45 478.828 1372.98 482.064L1374.14 480.436C1369.34 477.006 1363.04 474.38 1355.29 472.527L1354.83 474.473ZM1372.63 480.868L1366.63 495.368L1368.48 496.132L1374.48 481.632L1372.63 480.868ZM1432.13 500.75L1432.97 501.301L1432.97 501.294L1432.13 500.75ZM1423.13 533.75L1422.13 533.737V533.75H1423.13ZM1431.38 568L1430.52 568.515L1430.53 568.521L1431.38 568ZM1476.88 579L1477.25 579.928L1476.88 579ZM1490.13 573L1491.05 572.618L1490.64 571.625L1489.68 572.106L1490.13 573ZM1496.13 587.5L1496.67 588.34L1497.37 587.888L1497.05 587.118L1496.13 587.5ZM1477.38 595.25L1477.14 594.28L1477.13 594.282L1477.12 594.285L1477.38 595.25ZM1416.88 580.25L1416.09 580.864L1416.1 580.871L1416.88 580.25ZM1402.88 534L1401.88 533.991V534H1402.88ZM1417.63 488.5L1416.86 487.866L1416.86 487.867L1417.63 488.5ZM1478.13 473.5L1477.87 474.465L1477.88 474.468L1477.89 474.471L1478.13 473.5ZM1497.13 481.5L1498.05 481.888L1498.37 481.132L1497.69 480.672L1497.13 481.5ZM1491.13 495.75L1490.71 496.657L1491.65 497.094L1492.05 496.138L1491.13 495.75ZM1477.63 490L1477.23 490.915L1477.25 490.925L1477.27 490.933L1477.63 490ZM1459.38 486.25C1446.77 486.25 1437.34 490.875 1431.29 500.206L1432.97 501.294C1438.59 492.625 1447.33 488.25 1459.38 488.25V486.25ZM1431.3 500.199C1425.33 509.227 1422.3 520.426 1422.13 533.737L1424.13 533.763C1424.3 520.741 1427.26 509.94 1432.97 501.301L1431.3 500.199ZM1422.13 533.75C1422.13 547.548 1424.91 559.155 1430.52 568.514L1432.24 567.486C1426.85 558.512 1424.13 547.285 1424.13 533.75H1422.13ZM1430.53 568.521C1436.25 577.878 1445.61 582.5 1458.38 582.5V580.5C1446.15 580.5 1437.52 576.122 1432.23 567.479L1430.53 568.521ZM1458.38 582.5C1466.59 582.5 1472.91 581.666 1477.25 579.928L1476.51 578.072C1472.52 579.667 1466.51 580.5 1458.38 580.5V582.5ZM1477.25 579.928C1481.45 578.25 1485.89 576.238 1490.58 573.894L1489.68 572.106C1485.04 574.428 1480.65 576.417 1476.51 578.072L1477.25 579.928ZM1489.21 573.382L1495.21 587.882L1497.05 587.118L1491.05 572.618L1489.21 573.382ZM1495.59 586.66C1490.53 589.922 1484.39 592.467 1477.14 594.28L1477.62 596.22C1485.04 594.366 1491.4 591.745 1496.67 588.34L1495.59 586.66ZM1477.12 594.285C1469.83 596.272 1463.68 597.25 1458.63 597.25V599.25C1463.92 599.25 1470.26 598.228 1477.64 596.215L1477.12 594.285ZM1458.63 597.25C1440.54 597.25 1426.94 591.341 1417.66 579.629L1416.1 580.871C1425.82 593.159 1440.06 599.25 1458.63 599.25V597.25ZM1417.67 579.636C1408.5 567.85 1403.88 552.665 1403.88 534H1401.88C1401.88 553.001 1406.59 568.65 1416.09 580.864L1417.67 579.636ZM1403.88 534.009C1404.05 515.687 1408.91 500.755 1418.41 489.133L1416.86 487.867C1407.02 499.912 1402.05 515.313 1401.88 533.991L1403.88 534.009ZM1418.4 489.134C1428.01 477.409 1441.79 471.5 1459.88 471.5V469.5C1441.31 469.5 1426.92 475.591 1416.86 487.866L1418.4 489.134ZM1459.88 471.5C1464.59 471.5 1470.58 472.476 1477.87 474.465L1478.39 472.535C1471.02 470.524 1464.84 469.5 1459.88 469.5V471.5ZM1477.89 474.471C1485.3 476.283 1491.52 478.908 1496.57 482.328L1497.69 480.672C1492.41 477.092 1485.96 474.384 1478.37 472.529L1477.89 474.471ZM1496.21 481.112L1490.21 495.362L1492.05 496.138L1498.05 481.888L1496.21 481.112ZM1491.55 494.843C1486.87 492.668 1482.35 490.742 1477.99 489.067L1477.27 490.933C1481.58 492.591 1486.06 494.499 1490.71 496.657L1491.55 494.843ZM1478.03 489.085C1473.68 487.168 1467.43 486.25 1459.38 486.25V488.25C1467.33 488.25 1473.25 489.165 1477.23 490.915L1478.03 489.085ZM1544.07 575.25L1543.27 575.85L1543.28 575.859L1543.28 575.868L1544.07 575.25ZM1580.82 577L1581.33 577.857L1580.82 577ZM1595.82 564.5L1596.58 565.153L1596.82 564.872V564.5H1595.82ZM1595.82 536.75H1596.82V535.75H1595.82V536.75ZM1545.07 544L1544.32 543.332L1544.32 543.334L1545.07 544ZM1528.32 481.25L1527.76 480.423L1527.09 480.874L1527.39 481.621L1528.32 481.25ZM1548.07 473.5L1548.3 474.473L1548.07 473.5ZM1602.32 482L1601.66 482.749L1601.66 482.756L1601.67 482.762L1602.32 482ZM1615.57 595V596H1616.57V595H1615.57ZM1603.57 595L1602.65 595.394L1602.91 596H1603.57V595ZM1598.32 582.75L1599.24 582.356L1598.68 581.058L1597.64 582.014L1598.32 582.75ZM1582.07 593.25L1582.5 594.153L1582.07 593.25ZM1530.82 587.5L1530.09 588.19L1530.1 588.199L1530.82 587.5ZM1532.57 533.25L1533.18 534.042L1533.18 534.04L1532.57 533.25ZM1595.57 523.75V524.75H1596.57V523.75H1595.57ZM1534.07 496.25L1533.12 496.566L1533.47 497.611L1534.47 497.164L1534.07 496.25ZM1531.32 488.75L1530.39 489.121L1531.32 488.75ZM1537.82 560.5C1537.82 565.911 1539.66 571.034 1543.27 575.85L1544.87 574.65C1541.48 570.133 1539.82 565.423 1539.82 560.5H1537.82ZM1543.28 575.868C1547.2 580.853 1553.38 583.25 1561.57 583.25V581.25C1553.76 581.25 1548.27 578.98 1544.85 574.632L1543.28 575.868ZM1561.57 583.25C1568.74 583.25 1575.34 581.454 1581.33 577.857L1580.3 576.143C1574.63 579.546 1568.39 581.25 1561.57 581.25V583.25ZM1581.33 577.857C1587.25 574.306 1592.34 570.072 1596.58 565.153L1595.06 563.847C1590.97 568.595 1586.05 572.694 1580.3 576.143L1581.33 577.857ZM1596.82 564.5V536.75H1594.82V564.5H1596.82ZM1595.82 535.75H1563.82V537.75H1595.82V535.75ZM1563.82 535.75C1555.45 535.75 1548.89 538.235 1544.32 543.332L1545.81 544.668C1549.91 540.098 1555.86 537.75 1563.82 537.75V535.75ZM1544.32 543.334C1539.99 548.186 1537.82 553.924 1537.82 560.5H1539.82C1539.82 554.409 1541.81 549.147 1545.81 544.666L1544.32 543.334ZM1528.88 482.077C1533.41 479.006 1539.86 476.459 1548.3 474.473L1547.84 472.527C1539.28 474.541 1532.56 477.16 1527.76 480.423L1528.88 482.077ZM1548.3 474.473C1556.77 472.48 1563.43 471.5 1568.32 471.5V469.5C1563.2 469.5 1556.37 470.52 1547.84 472.527L1548.3 474.473ZM1568.32 471.5C1582.13 471.5 1593.21 475.276 1601.66 482.749L1602.98 481.251C1594.09 473.39 1582.51 469.5 1568.32 469.5V471.5ZM1601.67 482.762C1610.27 490.062 1614.57 499.61 1614.57 511.5H1616.57C1616.57 499.057 1612.04 488.938 1602.97 481.238L1601.67 482.762ZM1614.57 511.5V595H1616.57V511.5H1614.57ZM1615.57 594H1603.57V596H1615.57V594ZM1604.49 594.606L1599.24 582.356L1597.4 583.144L1602.65 595.394L1604.49 594.606ZM1597.64 582.014C1593.57 585.763 1588.24 589.211 1581.64 592.347L1582.5 594.153C1589.23 590.956 1594.74 587.404 1599 583.486L1597.64 582.014ZM1581.64 592.347C1575.09 595.457 1568.57 597 1562.07 597V599C1568.9 599 1575.71 597.377 1582.5 594.153L1581.64 592.347ZM1562.07 597C1548.22 597 1538.11 593.538 1531.53 586.801L1530.1 588.199C1537.19 595.462 1547.92 599 1562.07 599V597ZM1531.54 586.81C1524.9 579.848 1521.57 571.103 1521.57 560.5H1519.57C1519.57 571.564 1523.07 580.819 1530.09 588.19L1531.54 586.81ZM1521.57 560.5C1521.57 548.745 1525.47 539.983 1533.18 534.042L1531.96 532.458C1523.66 538.851 1519.57 548.255 1519.57 560.5H1521.57ZM1533.18 534.04C1541.13 527.875 1551.48 524.75 1564.32 524.75V522.75C1551.15 522.75 1540.34 525.959 1531.96 532.46L1533.18 534.04ZM1564.32 524.75H1595.57V522.75H1564.32V524.75ZM1596.57 523.75C1596.57 513.649 1594.97 505 1591.73 497.838L1589.91 498.662C1593 505.5 1594.57 513.851 1594.57 523.75H1596.57ZM1591.73 497.838C1588.33 490.319 1580.58 486.75 1569.07 486.75V488.75C1580.22 488.75 1586.98 492.181 1589.91 498.662L1591.73 497.838ZM1569.07 486.75C1560.84 486.75 1553.97 487.673 1548.49 489.554L1549.14 491.446C1554.34 489.661 1560.97 488.75 1569.07 488.75V486.75ZM1548.49 489.554C1543.14 491.396 1538.19 493.323 1533.66 495.336L1534.47 497.164C1538.94 495.177 1543.83 493.271 1549.14 491.446L1548.49 489.554ZM1535.02 495.934C1534.18 493.415 1533.25 490.896 1532.25 488.379L1530.39 489.121C1531.38 491.604 1532.29 494.085 1533.12 496.566L1535.02 495.934ZM1532.25 488.379C1531.25 485.879 1530.25 483.379 1529.25 480.879L1527.39 481.621C1528.39 484.121 1529.39 486.621 1530.39 489.121L1532.25 488.379ZM1674.29 501L1673.43 500.492L1673.43 500.497L1674.29 501ZM1674.29 568L1673.43 568.51L1673.44 568.517L1674.29 568ZM1717.29 578L1717.67 578.926L1717.68 578.921L1717.7 578.916L1717.29 578ZM1732.29 568.25L1732.96 568.996L1733.29 568.698V568.25H1732.29ZM1732.29 500.25H1733.29V499.802L1732.96 499.504L1732.29 500.25ZM1752.29 418.75H1753.29V417.631L1752.18 417.756L1752.29 418.75ZM1752.29 595V596H1753.29V595H1752.29ZM1740.54 595L1739.64 595.431L1739.91 596H1740.54V595ZM1735.29 584L1736.2 583.569L1735.65 582.427L1734.67 583.222L1735.29 584ZM1717.54 594.25L1717.17 593.321L1717.17 593.325L1717.54 594.25ZM1659.04 580.25L1658.23 580.83L1658.23 580.837L1658.24 580.843L1659.04 580.25ZM1659.29 488.5L1658.49 487.905L1658.49 487.907L1659.29 488.5ZM1716.04 473.75L1715.68 474.682L1715.69 474.686L1715.71 474.691L1716.04 473.75ZM1732.29 482.5L1731.69 483.297L1733.29 484.514V482.5H1732.29ZM1732.29 421L1732.18 420.006L1731.29 420.106V421H1732.29ZM1702.29 486C1688.86 486 1679.15 490.784 1673.43 500.492L1675.16 501.508C1680.44 492.549 1689.39 488 1702.29 488V486ZM1673.43 500.497C1667.99 509.847 1665.29 521.113 1665.29 534.25H1667.29C1667.29 521.387 1669.93 510.486 1675.16 501.503L1673.43 500.497ZM1665.29 534.25C1665.29 547.878 1667.99 559.317 1673.43 568.51L1675.16 567.49C1669.94 558.683 1667.29 547.622 1667.29 534.25H1665.29ZM1673.44 568.517C1679.01 577.738 1688.73 582.25 1702.29 582.25V580.25C1689.2 580.25 1680.25 575.929 1675.15 567.483L1673.44 568.517ZM1702.29 582.25C1707.12 582.25 1712.25 581.131 1717.67 578.926L1716.92 577.074C1711.68 579.203 1706.81 580.25 1702.29 580.25V582.25ZM1717.7 578.916C1723.13 576.537 1728.22 573.228 1732.96 568.996L1731.63 567.504C1727.04 571.606 1722.12 574.796 1716.89 577.084L1717.7 578.916ZM1733.29 568.25V500.25H1731.29V568.25H1733.29ZM1732.96 499.504C1728.22 495.272 1723.13 491.963 1717.7 489.584L1716.89 491.416C1722.12 493.704 1727.04 496.894 1731.63 500.996L1732.96 499.504ZM1717.7 489.584C1712.27 487.208 1707.13 486 1702.29 486V488C1706.79 488 1711.66 489.125 1716.89 491.416L1717.7 489.584ZM1751.29 418.75V595H1753.29V418.75H1751.29ZM1752.29 594H1740.54V596H1752.29V594ZM1741.45 594.569L1736.2 583.569L1734.39 584.431L1739.64 595.431L1741.45 594.569ZM1734.67 583.222C1729.58 587.321 1723.76 590.689 1717.17 593.322L1717.92 595.178C1724.67 592.478 1730.67 589.012 1735.92 584.778L1734.67 583.222ZM1717.17 593.325C1710.77 595.95 1704.64 597.25 1698.79 597.25V599.25C1704.95 599.25 1711.32 597.883 1717.92 595.175L1717.17 593.325ZM1698.79 597.25C1681.38 597.25 1668.46 591.352 1659.85 579.657L1658.24 580.843C1667.3 593.148 1680.88 599.25 1698.79 599.25V597.25ZM1659.86 579.67C1651.34 567.708 1647.04 552.673 1647.04 534.5H1645.04C1645.04 552.993 1649.42 568.459 1658.23 580.83L1659.86 579.67ZM1647.04 534.5C1647.04 515.992 1651.42 500.882 1660.1 489.093L1658.49 487.907C1649.5 500.118 1645.04 515.675 1645.04 534.5H1647.04ZM1660.1 489.095C1668.88 477.228 1681.89 471.25 1699.29 471.25V469.25C1681.37 469.25 1667.71 475.439 1658.49 487.905L1660.1 489.095ZM1699.29 471.25C1704.31 471.25 1709.77 472.383 1715.68 474.682L1716.41 472.818C1710.32 470.45 1704.61 469.25 1699.29 469.25V471.25ZM1715.71 474.691C1721.62 476.825 1726.94 479.694 1731.69 483.297L1732.9 481.703C1727.98 477.973 1722.47 475.009 1716.38 472.809L1715.71 474.691ZM1733.29 482.5V421H1731.29V482.5H1733.29ZM1732.41 421.994L1752.41 419.744L1752.18 417.756L1732.18 420.006L1732.41 421.994ZM1892.97 537.5V538.5H1893.97V537.5H1892.97ZM1804.97 537.5V536.5H1803.93L1803.97 537.539L1804.97 537.5ZM1815.22 569.5L1814.42 570.098L1814.43 570.105L1815.22 569.5ZM1864.97 579.5L1865.29 580.449L1865.3 580.446L1865.31 580.442L1864.97 579.5ZM1879.72 573.5L1880.64 573.104L1880.23 572.16L1879.3 572.593L1879.72 573.5ZM1885.97 588L1886.53 588.828L1887.22 588.364L1886.89 587.604L1885.97 588ZM1865.72 595.5L1865.55 594.516L1865.54 594.518L1865.53 594.519L1865.72 595.5ZM1799.97 580.25L1799.21 580.903L1799.22 580.908L1799.97 580.25ZM1784.47 534L1783.47 533.991V534H1784.47ZM1799.22 488.5L1798.45 487.866L1798.44 487.873L1799.22 488.5ZM1880.97 490.5L1880.11 491.007L1880.11 491.013L1880.12 491.019L1880.97 490.5ZM1873.47 524V525H1874.6L1874.47 523.878L1873.47 524ZM1863.72 497.5L1864.52 496.897L1863.72 497.5ZM1815.72 497.5L1814.96 496.851L1814.96 496.856L1814.95 496.862L1815.72 497.5ZM1805.47 524L1804.48 523.893L1804.36 525H1805.47V524ZM1892.97 536.5H1804.97V538.5H1892.97V536.5ZM1803.97 537.539C1804.48 550.531 1807.94 561.404 1814.42 570.097L1816.02 568.903C1809.84 560.596 1806.47 550.136 1805.97 537.461L1803.97 537.539ZM1814.43 570.105C1821 578.76 1831.35 583 1845.22 583V581C1831.76 581 1822.11 576.907 1816.02 568.895L1814.43 570.105ZM1845.22 583C1853.44 583 1860.15 582.163 1865.29 580.449L1864.66 578.551C1859.8 580.171 1853.33 581 1845.22 581V583ZM1865.31 580.442C1870.5 578.599 1875.45 576.588 1880.14 574.407L1879.3 572.593C1874.67 574.746 1869.78 576.734 1864.64 578.558L1865.31 580.442ZM1878.8 573.896L1885.05 588.396L1886.89 587.604L1880.64 573.104L1878.8 573.896ZM1885.41 587.172C1880.39 590.571 1873.79 593.032 1865.55 594.516L1865.9 596.484C1874.32 594.968 1881.22 592.429 1886.53 588.828L1885.41 587.172ZM1865.53 594.519C1857.22 596.181 1850.63 597 1845.72 597V599C1850.82 599 1857.56 598.153 1865.92 596.481L1865.53 594.519ZM1845.72 597C1825.76 597 1810.82 591.15 1800.73 579.592L1799.22 580.908C1809.79 593.017 1825.35 599 1845.72 599V597ZM1800.73 579.597C1790.58 567.812 1785.47 552.641 1785.47 534H1783.47C1783.47 553.025 1788.7 568.688 1799.21 580.903L1800.73 579.597ZM1785.47 534.009C1785.64 515.857 1790.5 500.92 1800 489.127L1798.44 487.873C1788.61 500.08 1783.64 515.477 1783.47 533.991L1785.47 534.009ZM1800 489.134C1809.61 477.404 1823.22 471.5 1840.97 471.5V469.5C1822.73 469.5 1808.5 475.596 1798.45 487.866L1800 489.134ZM1840.97 471.5C1859.54 471.5 1872.5 478.05 1880.11 491.007L1881.83 489.993C1873.78 476.284 1860.07 469.5 1840.97 469.5V471.5ZM1880.12 491.019C1888.01 504.003 1891.97 519.483 1891.97 537.5H1893.97C1893.97 519.183 1889.94 503.33 1881.83 489.981L1880.12 491.019ZM1874.47 523.878C1873.12 512.917 1869.82 503.904 1864.52 496.897L1862.93 498.103C1867.96 504.763 1871.16 513.416 1872.48 524.122L1874.47 523.878ZM1864.52 496.897C1859.12 489.757 1850.96 486.25 1840.22 486.25V488.25C1850.49 488.25 1857.99 491.577 1862.93 498.103L1864.52 496.897ZM1840.22 486.25C1829.48 486.25 1821.02 489.756 1814.96 496.851L1816.48 498.149C1822.09 491.577 1829.96 488.25 1840.22 488.25V486.25ZM1814.95 496.862C1809.13 503.877 1805.66 512.909 1804.48 523.893L1806.47 524.107C1807.62 513.424 1810.98 504.789 1816.49 498.138L1814.95 496.862ZM1805.47 525H1873.47V523H1805.47V525ZM1930.8 572.25L1930.07 572.934L1930.1 572.957L1930.12 572.98L1930.8 572.25ZM1930.8 591.25L1930.1 590.543L1930.8 591.25ZM1911.8 591.25L1911.1 591.957L1911.11 591.969L1911.12 591.98L1911.8 591.25ZM1911.8 572.25L1912.49 572.98L1912.5 572.969L1912.51 572.957L1911.8 572.25ZM1921.55 569.25C1924.94 569.25 1927.76 570.47 1930.07 572.934L1931.53 571.566C1928.84 568.697 1925.49 567.25 1921.55 567.25V569.25ZM1930.12 572.98C1932.58 575.29 1933.8 578.109 1933.8 581.5H1935.8C1935.8 577.558 1934.36 574.21 1931.49 571.52L1930.12 572.98ZM1933.8 581.5C1933.8 585.073 1932.57 588.067 1930.1 590.543L1931.51 591.957C1934.37 589.099 1935.8 585.594 1935.8 581.5H1933.8ZM1930.1 590.543C1927.79 592.848 1924.97 594 1921.55 594V596C1925.47 596 1928.81 594.652 1931.51 591.957L1930.1 590.543ZM1921.55 594C1917.96 594 1914.96 592.838 1912.49 590.52L1911.12 591.98C1913.98 594.662 1917.48 596 1921.55 596V594ZM1912.51 590.543C1910.03 588.067 1908.8 585.073 1908.8 581.5H1906.8C1906.8 585.594 1908.24 589.099 1911.1 591.957L1912.51 590.543ZM1908.8 581.5C1908.8 578.109 1910.02 575.29 1912.49 572.98L1911.12 571.52C1908.25 574.21 1906.8 577.558 1906.8 581.5H1908.8ZM1912.51 572.957C1914.99 570.481 1917.98 569.25 1921.55 569.25V567.25C1917.46 567.25 1913.95 568.685 1911.1 571.543L1912.51 572.957ZM1959.48 446L1958.75 446.684L1958.77 446.707L1958.8 446.73L1959.48 446ZM1959.48 427L1958.78 426.293L1959.48 427ZM1978.73 427L1978.03 427.707L1978.04 427.718L1978.05 427.73L1978.73 427ZM1978.73 446L1979.42 446.73L1979.43 446.719L1979.44 446.707L1978.73 446ZM1959.23 473.75V472.75H1958.23V473.75H1959.23ZM1979.23 473.75H1980.23V472.75H1979.23V473.75ZM1973.23 628.5L1972.34 628.045L1972.34 628.053L1973.23 628.5ZM1943.23 648L1942.35 648.466L1942.74 649.203L1943.53 648.954L1943.23 648ZM1935.73 633.75L1935.38 632.815L1934.32 633.216L1934.85 634.216L1935.73 633.75ZM1953.73 622.5L1952.98 621.839L1952.98 621.847L1952.97 621.854L1953.73 622.5ZM1969.23 448.75C1965.64 448.75 1962.64 447.588 1960.17 445.27L1958.8 446.73C1961.66 449.412 1965.16 450.75 1969.23 450.75V448.75ZM1960.21 445.316C1957.89 442.844 1956.73 439.843 1956.73 436.25H1954.73C1954.73 440.324 1956.07 443.822 1958.75 446.684L1960.21 445.316ZM1956.73 436.25C1956.73 432.838 1957.88 430.012 1960.19 427.707L1958.78 426.293C1956.08 428.988 1954.73 432.329 1954.73 436.25H1956.73ZM1960.19 427.707C1962.67 425.231 1965.66 424 1969.23 424V422C1965.14 422 1961.63 423.435 1958.78 426.293L1960.19 427.707ZM1969.23 424C1972.63 424 1975.54 425.222 1978.03 427.707L1979.44 426.293C1976.59 423.445 1973.17 422 1969.23 422V424ZM1978.05 427.73C1980.51 430.04 1981.73 432.859 1981.73 436.25H1983.73C1983.73 432.308 1982.29 428.96 1979.42 426.27L1978.05 427.73ZM1981.73 436.25C1981.73 439.823 1980.5 442.817 1978.03 445.293L1979.44 446.707C1982.3 443.849 1983.73 440.344 1983.73 436.25H1981.73ZM1978.05 445.27C1975.57 447.596 1972.65 448.75 1969.23 448.75V450.75C1973.15 450.75 1976.56 449.404 1979.42 446.73L1978.05 445.27ZM1960.23 602.5V473.75H1958.23V602.5H1960.23ZM1959.23 474.75H1979.23V472.75H1959.23V474.75ZM1978.23 473.75V592.75H1980.23V473.75H1978.23ZM1978.23 592.75C1978.23 608.701 1976.23 620.426 1972.34 628.045L1974.12 628.955C1978.23 620.908 1980.23 608.799 1980.23 592.75H1978.23ZM1972.34 628.053C1968.53 635.669 1958.88 642.063 1942.93 647.046L1943.53 648.954C1959.59 643.937 1969.93 637.331 1974.13 628.947L1972.34 628.053ZM1944.12 647.534L1936.62 633.284L1934.85 634.216L1942.35 648.466L1944.12 647.534ZM1936.09 634.685C1944.5 631.489 1950.67 627.662 1954.5 623.146L1952.97 621.854C1949.46 626.005 1943.63 629.678 1935.38 632.815L1936.09 634.685ZM1954.48 623.161C1958.39 618.725 1960.23 611.762 1960.23 602.5H1958.23C1958.23 611.571 1956.41 617.942 1952.98 621.839L1954.48 623.161ZM2087.77 495.75L2087.33 496.644L2088.29 497.125L2088.7 496.132L2087.77 495.75ZM2074.02 490L2074.36 489.058L2074.02 490ZM2037.77 491.75L2037.22 490.918L2037.21 490.923L2037.2 490.928L2037.77 491.75ZM2038.77 516L2038.22 516.832L2038.23 516.843L2038.25 516.853L2038.77 516ZM2058.52 524.75L2058.86 523.808L2058.85 523.805L2058.84 523.801L2058.52 524.75ZM2086.02 539L2085.45 539.817L2085.45 539.822L2086.02 539ZM2086.52 589L2087.13 589.798L2087.13 589.796L2086.52 589ZM2031.02 595.5L2031.25 594.526L2031.24 594.524L2031.23 594.522L2031.02 595.5ZM2011.77 588L2010.84 587.629L2010.54 588.382L2011.22 588.832L2011.77 588ZM2017.77 573L2018.22 572.106L2017.25 571.62L2016.84 572.629L2017.77 573ZM2033.27 579L2032.99 579.959L2033 579.962L2033.27 579ZM2071.77 577.25L2072.27 578.12L2071.77 577.25ZM2071.02 550.75L2070.44 551.559L2070.44 551.565L2070.45 551.57L2071.02 550.75ZM2050.52 540.75L2050.21 541.699L2050.21 541.701L2050.52 540.75ZM2023.52 527.75L2022.96 528.577L2022.97 528.583L2022.98 528.59L2023.52 527.75ZM2023.02 479.75L2023.62 480.55L2023.63 480.548L2023.02 479.75ZM2075.27 473.5L2075.02 474.468L2075.03 474.47L2075.04 474.473L2075.27 473.5ZM2093.77 481.25L2094.7 481.632L2095 480.898L2094.35 480.436L2093.77 481.25ZM2088.22 494.856C2084.18 492.834 2079.55 490.902 2074.36 489.058L2073.69 490.942C2078.83 492.765 2083.37 494.666 2087.33 496.644L2088.22 494.856ZM2074.36 489.058C2069.06 487.176 2062.77 486.25 2055.52 486.25V488.25C2062.61 488.25 2068.66 489.157 2073.69 490.942L2074.36 489.058ZM2055.52 486.25C2048.06 486.25 2041.93 487.776 2037.22 490.918L2038.33 492.582C2042.61 489.724 2048.32 488.25 2055.52 488.25V486.25ZM2037.2 490.928C2032.61 494.11 2030.27 498.497 2030.27 504H2032.27C2032.27 499.169 2034.27 495.39 2038.34 492.572L2037.2 490.928ZM2030.27 504C2030.27 509.096 2033.03 513.373 2038.22 516.832L2039.33 515.168C2034.52 511.96 2032.27 508.237 2032.27 504H2030.27ZM2038.25 516.853C2043.5 520.071 2050.16 523.017 2058.21 525.699L2058.84 523.801C2050.89 521.15 2044.38 518.262 2039.3 515.147L2038.25 516.853ZM2058.19 525.692C2067.94 529.162 2077.02 533.87 2085.45 539.817L2086.6 538.183C2078.03 532.13 2068.78 527.338 2058.86 523.808L2058.19 525.692ZM2085.45 539.822C2093.87 545.647 2098.02 553.349 2098.02 563H2100.02C2100.02 552.651 2095.51 544.353 2086.59 538.178L2085.45 539.822ZM2098.02 563C2098.02 573.706 2093.99 582.071 2085.92 588.204L2087.13 589.796C2095.73 583.263 2100.02 574.294 2100.02 563H2098.02ZM2085.92 588.202C2078 594.183 2066.25 597.25 2050.52 597.25V599.25C2066.46 599.25 2078.71 596.15 2087.13 589.798L2085.92 588.202ZM2050.52 597.25C2045.46 597.25 2039.05 596.351 2031.25 594.526L2030.8 596.474C2038.67 598.316 2045.25 599.25 2050.52 599.25V597.25ZM2031.23 594.522C2023.48 592.873 2017.19 590.412 2012.33 587.168L2011.22 588.832C2016.35 592.255 2022.9 594.793 2030.82 596.478L2031.23 594.522ZM2012.7 588.371L2018.7 573.371L2016.84 572.629L2010.84 587.629L2012.7 588.371ZM2017.33 573.894C2022.05 576.257 2027.28 578.278 2032.99 579.959L2033.56 578.041C2027.94 576.389 2022.83 574.409 2018.22 572.106L2017.33 573.894ZM2033 579.962C2038.92 581.653 2044.84 582.5 2050.77 582.5V580.5C2045.04 580.5 2039.3 579.681 2033.55 578.038L2033 579.962ZM2050.77 582.5C2059.86 582.5 2067.05 581.074 2072.27 578.12L2071.28 576.38C2066.49 579.093 2059.69 580.5 2050.77 580.5V582.5ZM2072.27 578.12C2077.59 575.106 2080.27 570.437 2080.27 564.25H2078.27C2078.27 569.73 2075.96 573.727 2071.28 576.38L2072.27 578.12ZM2080.27 564.25C2080.27 558.661 2077.27 553.888 2071.6 549.93L2070.45 551.57C2075.77 555.278 2078.27 559.505 2078.27 564.25H2080.27ZM2071.61 549.941C2066.01 545.866 2059.08 542.49 2050.83 539.799L2050.21 541.701C2058.31 544.343 2065.04 547.634 2070.44 551.559L2071.61 549.941ZM2050.84 539.801C2041.42 536.662 2032.5 532.365 2024.07 526.91L2022.98 528.59C2031.55 534.135 2040.63 538.505 2050.21 541.699L2050.84 539.801ZM2024.09 526.923C2016.01 521.429 2012.02 514.146 2012.02 505H2010.02C2010.02 514.854 2014.37 522.738 2022.96 528.577L2024.09 526.923ZM2012.02 505C2012.02 494.451 2015.9 486.344 2023.62 480.55L2022.42 478.95C2014.15 485.156 2010.02 493.882 2010.02 505H2012.02ZM2023.63 480.548C2031.57 474.552 2042.33 471.5 2056.02 471.5V469.5C2042.05 469.5 2030.81 472.615 2022.42 478.952L2023.63 480.548ZM2056.02 471.5C2061.07 471.5 2067.4 472.479 2075.02 474.468L2075.53 472.532C2067.82 470.521 2061.31 469.5 2056.02 469.5V471.5ZM2075.04 474.473C2082.63 476.286 2088.66 478.828 2093.19 482.064L2094.35 480.436C2089.55 477.006 2083.25 474.38 2075.51 472.527L2075.04 474.473ZM2092.85 480.868L2086.85 495.368L2088.7 496.132L2094.7 481.632L2092.85 480.868Z" fill="white"/>
</g>
<defs>
<filter id="filter0_d" x="84" y="84" width="531" height="531" filterUnits="userSpaceOnUse" color-interpolation-filters="sRGB">
<feFlood flood-opacity="0" result="BackgroundImageFix"/>
<feColorMatrix in="SourceAlpha" type="matrix" values="0 0 0 0 0 0 0 0 0 0 0 0 0 0 0 0 0 0 127 0"/>
<feOffset/>
<feGaussianBlur stdDeviation="1"/>
<feColorMatrix type="matrix" values="0 0 0 0 1 0 0 0 0 1 0 0 0 0 1 0 0 0 0.5 0"/>
<feBlend mode="normal" in2="BackgroundImageFix" result="effect1_dropShadow"/>
<feBlend mode="normal" in="SourceGraphic" in2="effect1_dropShadow" result="shape"/>
</filter>
<filter id="filter1_d" x="611" y="415.631" width="1491.02" height="237.268" filterUnits="userSpaceOnUse" color-interpolation-filters="sRGB">
<feFlood flood-opacity="0" result="BackgroundImageFix"/>
<feColorMatrix in="SourceAlpha" type="matrix" values="0 0 0 0 0 0 0 0 0 0 0 0 0 0 0 0 0 0 127 0"/>
<feOffset/>
<feGaussianBlur stdDeviation="1"/>
<feColorMatrix type="matrix" values="0 0 0 0 1 0 0 0 0 1 0 0 0 0 1 0 0 0 0.5 0"/>
<feBlend mode="normal" in2="BackgroundImageFix" result="effect1_dropShadow"/>
<feBlend mode="normal" in="SourceGraphic" in2="effect1_dropShadow" result="shape"/>
</filter>
<linearGradient id="paint0_linear" x1="477.711" y1="127.879" x2="221.773" y2="571.177" gradientUnits="userSpaceOnUse">
<stop stop-color="#FFDE00"/>
<stop offset="0.494792" stop-color="#D6C44B"/>
<stop offset="1" stop-color="#323330"/>
</linearGradient>
<linearGradient id="paint1_linear" x1="221.702" y1="571.299" x2="477.641" y2="128" gradientUnits="userSpaceOnUse">
<stop stop-color="#FFDE00"/>
<stop offset="0.494792" stop-color="#D6C44B"/>
<stop offset="1" stop-color="#323330"/>
</linearGradient>
</defs>
</svg>
